<?xml version="1.0" standalone="no"?>
<!DOCTYPE svg PUBLIC "-//W3C//DTD SVG 1.1//EN" "http://www.w3.org/Graphics/SVG/1.1/DTD/svg11.dtd" >
<svg>
<metadata>
Created by FontForge 20090622 at Thu Jul 16 10:37:58 2015
 By deploy user
&#194;&#169;2003 G-Type.  Designed and digitized by Nick Cooke  01943 461 808
</metadata>
<defs>
<font id="Chevin-Bold" horiz-adv-x="1000" >
  <font-face 
    font-family="Chevin"
    font-weight="700"
    font-stretch="normal"
    units-per-em="1000"
    panose-1="2 0 8 3 0 0 0 0 0 0"
    ascent="760"
    descent="-240"
    x-height="520"
    cap-height="738"
    bbox="-80 -251 903 1016"
    underline-thickness="20"
    underline-position="-123"
    unicode-range="U+0020-U+FB02"
  />
<missing-glyph 
 />
    <glyph glyph-name="trademark" unicode="TM" horiz-adv-x="853" 
d="M793 680q0 16 -11 27.5t-28 11.5q-12 0 -22.5 -4.5t-17.5 -18.5l-114 -231l-112 229q-13 25 -41 25q-17 0 -29 -11t-12 -28v-366q0 -17 11.5 -28t27.5 -11q17 0 28 11t11 28v218l78 -162q12 -24 38 -24q11 0 21.5 6t16.5 19l77 161v-218q0 -17 11.5 -28t27.5 -11
q17 0 28 11t11 28v366zM373 673q0 17 -12 29t-29 12h-261q-17 0 -29 -12t-12 -29t12 -29t29 -12h88v-315q0 -17 12.5 -29.5t30.5 -12.5q17 0 29.5 12.5t12.5 29.5v315h88q17 0 29 12t12 29z" />
    <glyph glyph-name="ellipsis" unicode="&#x2e;&#x2e;&#x2e;" horiz-adv-x="837" 
d="M775 71q0 33 -23.5 56.5t-56.5 23.5t-56.5 -23.5t-23.5 -56.5t23.5 -56.5t56.5 -23.5t56.5 23.5t23.5 56.5zM497 71q0 33 -23.5 56.5t-56.5 23.5t-56.5 -23.5t-23.5 -56.5t23.5 -56.5t56.5 -23.5t56.5 23.5t23.5 56.5zM220 71q0 33 -23.5 56.5t-56.5 23.5t-56.5 -23.5
t-23.5 -56.5t23.5 -56.5t56.5 -23.5t56.5 23.5t23.5 56.5z" />
    <glyph glyph-name="uniFB01" unicode="fi" horiz-adv-x="573" 
d="M515 673q0 32 -22 53.5t-53 21.5q-32 0 -54 -21.5t-22 -53.5t22 -53.5t54 -21.5q31 0 53 21.5t22 53.5zM503 62v396q0 29 -19.5 48.5t-47.5 19.5q-29 0 -48.5 -19.5t-19.5 -48.5v-396q0 -29 19.5 -48.5t48.5 -19.5q28 0 47.5 19.5t19.5 48.5zM336 674q0 25 -17 42t-42 17
h-38q-44 0 -74 -14.5t-49 -38t-27 -54t-8 -61.5v-45h-15q-23 0 -39 -16t-16 -39t16 -39.5t39 -16.5h15v-347q0 -29 19.5 -48.5t48.5 -19.5q28 0 47.5 19.5t19.5 48.5v347h45q23 0 39 16.5t16 39.5t-16 39t-39 16h-45v33q0 33 10.5 48t39.5 15h11q25 0 42 17t17 41z" />
    <glyph glyph-name="uniFB02" unicode="fl" horiz-adv-x="579" 
d="M548 50q0 14 -5.5 23.5t-13.5 15.5q-12 10 -21 20.5t-9 35.5v512q0 28 -19.5 48t-47.5 20q-29 0 -48.5 -20t-19.5 -48v-524q0 -42 15 -71t38 -46q14 -11 30.5 -16.5t32.5 -5.5q29 0 48.5 13t19.5 43zM336 674q0 25 -17 42t-42 17h-38q-44 0 -74 -14.5t-49 -38t-27 -54
t-8 -61.5v-45h-15q-23 0 -39 -16t-16 -39t16 -39.5t39 -16.5h15v-347q0 -29 19.5 -48.5t48.5 -19.5q28 0 47.5 19.5t19.5 48.5v347h45q23 0 39 16.5t16 39.5t-16 39t-39 16h-45v33q0 33 10.5 48t39.5 15h11q25 0 42 17t17 41z" />
    <glyph glyph-name=".notdef" 
 />
    <glyph glyph-name=".null" horiz-adv-x="0" 
 />
    <glyph glyph-name="nonmarkingreturn" horiz-adv-x="308" 
 />
    <glyph glyph-name="dsuperior" unicode=" " horiz-adv-x="308" 
 />
    <glyph glyph-name="Lslash" unicode="&#x141;" horiz-adv-x="595" 
d="M583 66q0 27 -19.5 46t-46.5 19h-249v200l107 69q22 15 27.5 40.5t-8.5 47.5q-15 23 -40.5 28t-47.5 -9l-38 -24v186q0 29 -19.5 49t-48.5 20t-49 -20t-20 -49v-275l-95 -61q-22 -14 -27 -40t9 -48q14 -23 39.5 -28t48.5 9l25 16v-176q0 -28 19 -47t46 -19h321
q27 0 46.5 19t19.5 47z" />
    <glyph glyph-name="lslash" unicode="&#x142;" horiz-adv-x="406" 
d="M392 488q-14 22 -39.5 27.5t-47.5 -8.5l-39 -25v179q0 28 -19.5 48t-47.5 20q-29 0 -48.5 -20t-19.5 -48v-267l-95 -62q-22 -14 -27.5 -39.5t8.5 -47.5t39.5 -27.5t48.5 8.5l26 17v-106q0 -42 15 -71t38 -46q14 -11 30.5 -16.5t32.5 -5.5q29 0 48.5 13t19.5 43
q0 14 -5.5 23.5t-13.5 15.5q-12 10 -21 20.5t-9 35.5v182l108 70q22 14 27.5 39.5t-9.5 47.5z" />
    <glyph glyph-name="Scaron" unicode="&#x160;" horiz-adv-x="586" 
d="M547 227q0 53 -19.5 92.5t-61.5 65.5q-17 10 -38.5 18t-45.5 14.5t-49 12t-48 11.5q-51 13 -75 30t-24 55q0 41 32 64t91 23q23 0 39.5 -2.5t29.5 -5.5q23 -5 37.5 -11t29.5 -6q30 0 46.5 20t16.5 45q0 20 -11.5 37t-36.5 25q-38 13 -77.5 18t-84.5 5q-51 0 -96.5 -15
t-79.5 -44t-54 -72t-20 -99q0 -63 24.5 -100t62.5 -59q17 -9 40 -16.5t47 -13.5l47.5 -11.5t42.5 -10.5q57 -16 77.5 -34t20.5 -51q0 -45 -34 -71t-110 -26q-27 0 -47.5 3t-36.5 7q-29 7 -45.5 14.5t-33.5 7.5q-28 0 -43.5 -19.5t-15.5 -45.5q0 -19 11 -36.5t35 -26.5
q43 -16 89 -22t99 -6q58 0 107 14.5t85 44t56.5 74t20.5 103.5zM445 976q-13 17 -31.5 20t-37.5 -11l-84 -64l-84 65q-19 14 -37.5 11.5t-31.5 -18.5q-13 -17 -11.5 -36t19.5 -35l107 -94q8 -6 17.5 -10t20.5 -4q22 0 38 14l107 92q18 15 19.5 34t-11.5 36z" />
    <glyph glyph-name="scaron" unicode="&#x161;" horiz-adv-x="463" 
d="M425 159q0 41 -12 67.5t-31.5 43.5t-44 26t-49.5 15q-25 5 -47 9t-39 10t-27 15.5t-10 26.5q0 18 16 30.5t52 12.5q26 0 47.5 -4.5t50.5 -14.5q23 -7 43 4t27 33q8 22 -2.5 42.5t-33.5 28.5q-29 10 -60.5 16t-79.5 6q-38 0 -71.5 -10.5t-59.5 -31t-41 -50.5t-15 -70
q0 -37 10 -62t26.5 -41.5t38 -25.5t44.5 -15q25 -7 50.5 -11t45 -10t32 -16.5t12.5 -29.5q0 -23 -21.5 -36t-59.5 -13q-39 0 -61.5 5.5t-44.5 13.5q-21 8 -43 -1.5t-30 -34.5q-6 -21 2.5 -42.5t30.5 -29.5q26 -9 58.5 -15t85.5 -6q40 0 78.5 9t67.5 29t47 51t18 76zM383 775
q-13 17 -31.5 20t-37.5 -11l-84 -64l-84 65q-19 14 -37.5 11.5t-31.5 -18.5q-13 -17 -11.5 -36t19.5 -35l107 -94q8 -6 17.5 -10t20.5 -4q22 0 38 14l107 92q18 15 19.5 34t-11.5 36z" />
    <glyph glyph-name="Yacute" unicode="&#xdd;" horiz-adv-x="525" 
d="M525 673q0 28 -22 46.5t-48 18.5q-17 0 -32.5 -9.5t-24.5 -30.5l-61.5 -132l-72.5 -144l-72 143.5l-62 131.5q-9 21 -25 31t-34 10q-13 0 -26 -5t-23 -14t-16 -21t-6 -26q0 -16 7 -30q75 -171 186 -375v-207q0 -29 20 -49t49 -20t49 20t20 49v208l102.5 196.5t84.5 179.5
q7 15 7 29zM338 929q11 17 6 38t-28 33q-24 13 -45 3.5t-29 -27.5l-56 -113q-11 -20 -3 -37.5t26 -26.5q17 -8 34 -2.5t29 25.5z" />
    <glyph glyph-name="yacute" unicode="&#xfd;" horiz-adv-x="474" 
d="M452 435q7 20 4 37t-12.5 29t-23.5 18.5t-30 6.5q-19 0 -36.5 -11t-25.5 -35l-92 -292l-55 160.5l-42 131.5q-7 23 -22.5 34.5t-34.5 11.5q-15 0 -29 -6t-23.5 -16.5t-13.5 -25.5t2 -34l29 -88.5t38 -106.5l43.5 -115l44.5 -113q-28 -45 -57.5 -58.5t-60.5 -15.5
t-45.5 -22t-14.5 -43q0 -26 19.5 -47t55.5 -18q48 4 85.5 21.5t68 49.5t55 78t46.5 108zM323 728q11 17 6 38t-28 33q-24 13 -45 3.5t-29 -27.5l-56 -113q-11 -20 -3 -37.5t26 -26.5q17 -8 34 -2.5t29 25.5z" />
    <glyph glyph-name="glyph10" 
 />
    <glyph glyph-name="glyph11" 
 />
    <glyph glyph-name="Thorn" unicode="&#xde;" horiz-adv-x="602" 
d="M565 305v51q0 37 -11.5 74t-38 66.5t-70.5 47.5t-109 18h-121v132q0 29 -20 48.5t-49 19.5t-48.5 -19.5t-19.5 -48.5v-801q0 -29 19.5 -49t48.5 -20t49 20t20 49v210h127q53 0 94.5 14.5t70 41.5t43.5 64t15 82zM427 307q0 -15 -4.5 -29t-15 -25t-28 -17.5t-43.5 -6.5
h-121v203h109q31 0 51.5 -7t31.5 -18t15.5 -25t4.5 -28v-47z" />
    <glyph glyph-name="thorn" unicode="&#xfe;" horiz-adv-x="539" 
d="M487 228v81q0 105 -46.5 159.5t-145.5 54.5q-50 0 -96 -23v171q0 28 -19.5 47.5t-47.5 19.5q-29 0 -48.5 -19.5t-19.5 -47.5v-789q0 -28 19.5 -47.5t48.5 -19.5q28 0 47.5 19.5t19.5 47.5v140q22 -14 49 -22t56 -8q51 0 86 16t56.5 46.5t31 74.5t9.5 99zM353 203
q0 -47 -18 -72.5t-62 -25.5q-17 0 -37 8t-37 23v246q36 28 73 28q44 0 62.5 -23t18.5 -68v-116z" />
    <glyph glyph-name="glyph14" 
 />
    <glyph glyph-name="Zcaron" unicode="&#x17d;" horiz-adv-x="557" 
d="M531 66q0 27 -18.5 46t-45.5 19h-260l302 472q8 12 14.5 28.5t6.5 31.5q0 28 -17 47t-47 19h-374q-26 0 -45 -19.5t-19 -46.5t19 -46.5t45 -19.5h254l-299 -467q-9 -14 -15 -30.5t-6 -33.5q0 -28 18.5 -47t46.5 -19h376q27 0 45.5 19t18.5 47zM433 976q-13 17 -31.5 20
t-37.5 -11l-84 -64l-84 65q-19 14 -37.5 11.5t-31.5 -18.5q-13 -17 -11.5 -36t19.5 -35l107 -94q8 -6 17.5 -10t20.5 -4q22 0 38 14l107 92q18 15 19.5 34t-11.5 36z" />
    <glyph glyph-name="zcaron" unicode="&#x17e;" horiz-adv-x="447" 
d="M425 462q0 31 -21 44.5t-42 13.5h-269q-24 0 -41 -17t-17 -42q0 -24 17 -41t41 -17h155l-215 -298q-13 -17 -13 -40q0 -15 6 -27.5t15 -20.5t19.5 -12.5t19.5 -4.5h286q24 0 41.5 17t17.5 42q0 24 -17.5 41t-41.5 17h-170l209 289q20 29 20 56zM386 775q-13 17 -31.5 20
t-37.5 -11l-84 -64l-84 65q-19 14 -37.5 11.5t-31.5 -18.5q-13 -17 -11.5 -36t19.5 -35l107 -94q8 -6 17.5 -10t20.5 -4q22 0 38 14l107 92q18 15 19.5 34t-11.5 36z" />
    <glyph glyph-name="glyph17" 
 />
    <glyph glyph-name="glyph18" 
 />
    <glyph glyph-name="glyph19" 
 />
    <glyph glyph-name="glyph20" 
 />
    <glyph glyph-name="glyph21" 
 />
    <glyph glyph-name="onehalf" unicode="&#xbd;" horiz-adv-x="450" 
d="M353 378q0 14 -10 24.5t-25 10.5h-37v282q0 16 -11 26.5t-26 10.5q-12 0 -22 -7l-116 -77q-12 -8 -15 -22t5 -26t22 -15t26 5l63 42v-219h-73q-14 0 -24.5 -10.5t-10.5 -24.5t10.5 -24.5t24.5 -10.5h184q15 0 25 10.5t10 24.5zM415 257q0 14 -10 24t-25 10h-310
q-15 0 -25 -10t-10 -24q0 -15 10 -25t25 -10h310q15 0 25 10t10 25zM350 -175q0 14 -10.5 24.5t-24.5 10.5h-127q10 26 33.5 44l49.5 38q15 11 29 23t25.5 26.5t18 32t6.5 39.5q0 20 -6.5 40.5t-21 37t-37 27t-55.5 10.5q-65 0 -108 -34q-8 -6 -10 -12.5t-2 -14.5
q0 -15 10 -25t24 -10q11 0 18.5 6t18.5 12q9 5 19.5 8.5t26.5 3.5q27 0 38 -15.5t11 -33.5q0 -17 -9 -30.5t-23.5 -26t-32 -24.5t-34.5 -27q-13 -11 -25.5 -23.5t-22.5 -28.5t-16 -35t-6 -43q0 -16 9.5 -26t25.5 -10h173q14 0 24.5 10.5t10.5 25.5z" />
    <glyph glyph-name="onequarter" unicode="&#xbc;" horiz-adv-x="450" 
d="M353 378q0 14 -10 24.5t-25 10.5h-37v282q0 16 -11 26.5t-26 10.5q-12 0 -22 -7l-116 -77q-12 -8 -15 -22t5 -26t22 -15t26 5l63 42v-219h-73q-14 0 -24.5 -10.5t-10.5 -24.5t10.5 -24.5t24.5 -10.5h184q15 0 25 10.5t10 24.5zM415 257q0 14 -10 24t-25 10h-310
q-15 0 -25 -10t-10 -24q0 -15 10 -25t25 -10h310q15 0 25 10t10 25zM350 -113q0 14 -10 24t-24 10h-13v43q0 14 -10.5 24.5t-25.5 10.5q-14 0 -24.5 -10.5t-10.5 -24.5v-43h-58l88 207q6 14 0.5 28t-19.5 20t-28 0.5t-19 -19.5l-107 -253q-2 -4 -3 -8t-1 -9q0 -15 9.5 -24.5
t23.5 -9.5h114v-33q0 -14 10.5 -24.5t24.5 -10.5q15 0 25.5 10.5t10.5 24.5v33h13q14 0 24 10t10 24z" />
    <glyph glyph-name="uni00B9" unicode="&#xb9;" horiz-adv-x="450" 
d="M367 351q0 15 -11 26t-27 11h-41v304q0 17 -11.5 28.5t-27.5 11.5q-7 0 -12.5 -2t-11.5 -5l-125 -83q-14 -9 -16.5 -24t5.5 -28t23.5 -16.5t28.5 5.5l68 45v-236h-79q-16 0 -26.5 -11t-10.5 -26q0 -16 10.5 -27t26.5 -11h199q16 0 27 11t11 27z" />
    <glyph glyph-name="threequarters" unicode="&#xbe;" horiz-adv-x="450" 
d="M347 449q0 39 -16.5 61t-44.5 32q55 24 55 86q0 16 -6 34.5t-19.5 34t-35 25.5t-53.5 10t-54.5 -8.5t-34.5 -18.5q-18 -15 -18 -32q0 -16 9 -24t20 -8q10 0 16 4.5t14 9.5q9 5 20 8.5t25 3.5q29 0 39.5 -15t10.5 -35q0 -26 -18 -35.5t-41 -10.5q-13 0 -26 -6t-13 -25
q0 -20 12 -25.5t25 -6.5q25 0 42.5 -10.5t17.5 -39.5q0 -26 -15.5 -40.5t-43.5 -14.5q-25 0 -43 11q-10 6 -15.5 9t-12.5 3q-13 0 -22 -9t-9 -22q0 -16 13 -27q30 -30 92 -30q33 0 57.5 9.5t40.5 25t24 35.5t8 41zM415 257q0 14 -10 24t-25 10h-310q-15 0 -25 -10t-10 -24
q0 -15 10 -25t25 -10h310q15 0 25 10t10 25zM350 -113q0 14 -10 24t-24 10h-12v43q0 14 -10.5 24.5t-25.5 10.5t-25.5 -10.5t-10.5 -24.5v-43h-57l87 207q6 14 0.5 28t-19.5 20t-27.5 0.5t-19.5 -19.5l-107 -253q-2 -4 -3 -8t-1 -9q0 -15 10 -24.5t24 -9.5h113v-33
q0 -14 10.5 -24.5t25.5 -10.5t25.5 10.5t10.5 24.5v33h12q14 0 24 10t10 24z" />
    <glyph glyph-name="uni00B3" unicode="&#xb3;" horiz-adv-x="450" 
d="M351 427q0 42 -17.5 65.5t-47.5 34.5q59 25 59 93q0 18 -6.5 37.5t-21 36t-38 27.5t-57.5 11q-35 0 -59 -9t-37 -20q-19 -16 -19 -35q0 -17 10 -25.5t21 -8.5t17.5 5t14.5 10q11 6 22.5 9.5t26.5 3.5q30 0 42 -16.5t12 -36.5q0 -29 -19.5 -39.5t-44.5 -10.5
q-14 -1 -28 -7.5t-14 -26.5q0 -21 13 -27.5t27 -6.5q27 0 45.5 -11.5t18.5 -42.5q0 -28 -16.5 -44t-45.5 -16q-15 0 -26 2.5t-22 9.5q-10 7 -16 10.5t-14 3.5q-14 0 -23 -10t-9 -25q0 -14 13 -29q32 -31 100 -31q35 0 61 10t43.5 27t26 38t8.5 44z" />
    <glyph glyph-name="uni00B2" unicode="&#xb2;" horiz-adv-x="450" 
d="M356 351q0 16 -11 26.5t-27 10.5h-137q11 29 36 49t54 40q16 12 31.5 25t27.5 28.5t19 34.5t7 43q0 21 -7 43t-22.5 40t-40.5 29.5t-60 11.5q-71 0 -115 -37q-8 -7 -11 -14t-3 -15q0 -16 11.5 -26.5t25.5 -10.5q12 0 20 6t20 12q9 5 21 9t29 4q29 0 40.5 -16t11.5 -36
q0 -18 -9.5 -33t-25 -28t-34.5 -26.5t-38 -28.5q-14 -12 -27.5 -26t-24 -31t-17 -37.5t-6.5 -46.5q0 -17 10.5 -27.5t27.5 -10.5h186q16 0 27 11t11 27z" />
    <glyph glyph-name="brokenbar" unicode="&#xa6;" horiz-adv-x="280" 
d="M209 500v256q0 29 -20 48.5t-49 19.5t-49 -19.5t-20 -48.5v-256q0 -29 20 -49t49 -20t49 20t20 49zM209 -27v256q0 29 -20 49t-49 20t-49 -20t-20 -49v-256q0 -29 20 -49t49 -20t49 20t20 49z" />
    <glyph glyph-name="minus" unicode="&#x2212;" horiz-adv-x="590" 
d="M527 286q0 26 -18.5 44t-44.5 18h-339q-26 0 -44 -18t-18 -44t18 -44t44 -18h339q26 0 44.5 18t18.5 44z" />
    <glyph glyph-name="multiply" unicode="&#xd7;" horiz-adv-x="490" 
d="M409 450q-18 18 -44 18t-44 -18l-76 -76l-76 76q-18 18 -44 18t-44 -18q-18 -19 -18 -45q0 -25 18 -43l76 -76l-76 -76q-18 -18 -18 -44t18 -44t44 -18t44 18l76 76l76 -76q18 -18 44 -18t44 18t18 44t-18 44l-76 76l76 76q18 18 18 43q0 26 -18 45z" />
    <glyph glyph-name="glyph31" 
 />
    <glyph glyph-name="glyph32" 
 />
    <glyph glyph-name="eth" unicode="&#xf0;" horiz-adv-x="572" 
d="M522 242q0 104 -41 197.5t-122 177.5l41 31q17 13 19.5 33t-9.5 37q-13 16 -33 19t-37 -10l-56 -42q-11 10 -23.5 19.5l-25.5 18.5q-19 13 -40 13q-29 0 -48 -20t-19 -49q0 -14 6.5 -28.5t22.5 -25.5q4 -3 7.5 -6t8.5 -6l-38 -28q-17 -13 -20 -33t10 -37
q12 -17 32.5 -19.5t36.5 9.5l55 42q23 -24 43 -49.5t37 -53.5q-14 5 -28 7.5t-29 2.5q-40 0 -79.5 -13.5t-71 -40.5t-51.5 -68t-20 -95q0 -52 17 -95t48 -74t74.5 -48t95.5 -17q48 0 91.5 15.5t75.5 46.5t51 78.5t19 110.5zM387 242q0 -69 -29 -98.5t-73 -29.5
q-51 0 -75.5 32t-24.5 79q0 24 9.5 43.5t25 33t35 21t39.5 7.5q52 0 87 -23q6 -32 6 -65z" />
    <glyph glyph-name="exclam" unicode="!" horiz-adv-x="314" 
d="M231 662q2 31 -16 53.5t-53 22.5t-53 -22.5t-16 -53.5l15 -366q2 -32 13.5 -49t40.5 -17t40 17t13 49zM242 71q0 33 -23.5 56.5t-56.5 23.5t-56.5 -23.5t-23.5 -56.5t23.5 -56.5t56.5 -23.5t56.5 23.5t23.5 56.5z" />
    <glyph glyph-name="quotedbl" unicode="&#x22;" horiz-adv-x="418" 
d="M368 665q3 28 -12 50.5t-50 22.5t-49.5 -22.5t-11.5 -50.5l11 -110q3 -29 13.5 -43.5t36.5 -14.5t36.5 14.5t13.5 43.5zM160 665q3 28 -11.5 50.5t-49.5 22.5t-49.5 -22.5t-12.5 -50.5l12 -110q3 -29 13.5 -43.5t36.5 -14.5t36.5 14.5t13.5 43.5z" />
    <glyph glyph-name="numbersign" unicode="#" horiz-adv-x="728" 
d="M707 504q0 26 -18 44t-44 18h-56l15 101q4 25 -10.5 45.5t-40.5 24.5q-25 4 -45.5 -11t-24.5 -40l-18 -120h-143l15 101q4 25 -11 45.5t-40 24.5q-26 4 -46 -11t-24 -40l-19 -120h-74q-26 0 -44 -18t-18 -44t18 -44t44 -18h56l-24 -156h-75q-26 0 -44 -18t-18 -44
t18 -44.5t44 -18.5h56l-15 -99q-4 -26 11 -46t40 -24q26 -5 46 10t24 41l18 118h143l-15 -99q-4 -26 11 -46t40 -24q26 -5 46.5 10t24.5 41l18 118h74q26 0 44 18.5t18 44.5t-18 44t-44 18h-55l23 156h75q26 0 44 18t18 44zM446 442l-24 -156h-143l24 156h143z" />
    <glyph glyph-name="dollar" unicode="$" horiz-adv-x="586" 
d="M547 227q0 52 -19 92.5t-61 66.5q-17 10 -39.5 18t-47.5 14.5t-49.5 12l-45.5 10.5q-51 13 -75 29.5t-24 55.5q0 41 32 64t91 23q23 0 39.5 -2.5t29.5 -5.5q23 -5 37.5 -11t29.5 -6q30 0 46.5 20t16.5 45q0 20 -11.5 37t-36.5 25q-28 10 -57.5 14.5t-61.5 6.5v50
q0 22 -15.5 37.5t-37.5 15.5t-37.5 -15.5t-15.5 -37.5v-55q-40 -8 -74.5 -26t-59.5 -46.5t-39 -66t-14 -84.5q0 -63 24.5 -100t62.5 -59q17 -10 40 -17.5t47 -13.5t47.5 -11t42.5 -10q57 -16 77.5 -34.5t20.5 -50.5q0 -45 -34 -71t-110 -26q-27 0 -47.5 3t-36.5 7
q-29 7 -45.5 14.5t-33.5 7.5q-28 0 -43.5 -20t-15.5 -45q0 -20 11 -37t35 -26q34 -13 69.5 -19t75.5 -8v-49q0 -23 15.5 -38t37.5 -15t37.5 15t15.5 38v53q46 7 84 25t65 47t42 68.5t15 90.5z" />
    <glyph glyph-name="percent" unicode="%" horiz-adv-x="599" 
d="M284 565v60q0 28 -9.5 49t-25.5 35.5t-37 21.5t-44 7t-44 -7t-37 -21.5t-25.5 -35.5t-9.5 -49v-60q0 -29 9.5 -50t25.5 -35t37 -21t44 -7t44 7t37 21t25.5 35t9.5 50zM459 685q5 16 -1.5 30.5t-21.5 19.5q-15 6 -29.5 -0.5t-20.5 -21.5l-247 -670q-6 -15 0.5 -29.5
t21.5 -20.5q15 -5 29.5 1t20.5 21zM547 103v61q0 28 -9.5 49t-25.5 35.5t-37 21.5t-45 7q-23 0 -44 -7t-37 -21.5t-25.5 -35.5t-9.5 -49v-61q0 -28 9.5 -49t25.5 -35t37 -21t44 -7q24 0 45 7t37 21t25.5 35t9.5 49zM203 563q0 -20 -9.5 -30t-25.5 -10t-25.5 10t-9.5 30v63
q0 21 9.5 30.5t25.5 9.5t25.5 -9.5t9.5 -30.5v-63zM466 102q0 -21 -10 -30.5t-26 -9.5q-15 0 -24.5 9.5t-9.5 30.5v64q0 20 9.5 29.5t24.5 9.5q17 0 26.5 -9.5t9.5 -29.5v-64z" />
    <glyph glyph-name="ampersand" unicode="&#x26;" horiz-adv-x="635" 
d="M610 56q0 23 -16 42l-46 61q13 21 23.5 45.5t18 47.5t11.5 43.5t4 34.5q0 27 -19 45.5t-45 18.5q-25 0 -42.5 -15.5t-20.5 -41.5q-2 -17 -5.5 -34t-10.5 -33l-159 205q-16 20 -30 44t-14 44q0 30 17 43.5t37 13.5q21 0 36 -10t28 -21q7 -5 12 -10t10 -8q7 -5 14 -8t18 -3
q24 0 43 18t19 46q0 25 -16 48t-45 39q-23 13 -53.5 20t-66.5 7q-35 0 -69 -9.5t-61 -29.5t-43.5 -51.5t-16.5 -76.5q0 -40 18 -80t47 -78q-26 -17 -50.5 -38t-44 -47t-31.5 -57.5t-12 -69.5q0 -41 13 -78.5t39.5 -67t67 -47t95.5 -17.5q61 0 109.5 18.5t86.5 49.5l32 -41
q9 -12 22.5 -19.5t30.5 -7.5q27 0 46 19t19 46zM384 157q-20 -20 -48.5 -32.5t-61.5 -12.5q-43 0 -69.5 24.5t-26.5 68.5q0 36 23 63.5t60 49.5z" />
    <glyph glyph-name="quotesingle" unicode="'" horiz-adv-x="224" 
d="M174 665q3 28 -12 50.5t-50 22.5t-49.5 -22.5t-11.5 -50.5l11 -110q3 -29 13.5 -43.5t36.5 -14.5t36.5 14.5t13.5 43.5z" />
    <glyph glyph-name="parenleft" unicode="(" horiz-adv-x="342" 
d="M285 -34q0 21 -13 44q-51 85 -71.5 172.5t-20.5 181.5t20.5 181.5t71.5 172.5q13 22 13 44q0 27 -19.5 45t-46.5 18q-14 0 -29 -6.5t-26 -23.5q-35 -48 -58 -102t-37.5 -109.5t-20.5 -111t-6 -108.5t6 -109t20.5 -111.5t37.5 -109.5t58 -102q11 -17 26 -23t29 -6
q27 0 46.5 17.5t19.5 45.5z" />
    <glyph glyph-name="parenright" unicode=")" horiz-adv-x="342" 
d="M300 364q0 53 -6 108.5t-20.5 111t-38 109.5t-57.5 102q-12 17 -26.5 23.5t-28.5 6.5q-27 0 -46.5 -18t-19.5 -45q0 -11 2.5 -22t9.5 -22q51 -85 72 -172.5t21 -181.5t-21 -181.5t-72 -172.5q-7 -12 -9.5 -23t-2.5 -21q0 -28 19.5 -45.5t46.5 -17.5q14 0 28.5 6t26.5 23
q34 48 57.5 102t38 109.5t20.5 111.5t6 109z" />
    <glyph glyph-name="asterisk" unicode="*" horiz-adv-x="486" 
d="M437 597q-9 26 -29 31t-40 -3l-86 -38l9 94q2 22 -9.5 39t-38.5 17t-38.5 -17t-9.5 -39l9 -94l-87 38q-20 8 -40 3t-28 -31t5 -42t34 -21l92 -21l-63 -71q-14 -16 -15 -36.5t21 -36.5t41.5 -9t30.5 26l48 82l48 -82q11 -19 30 -26t42 9q22 16 20.5 36.5t-15.5 36.5
l-63 71l93 21q21 5 34 21t5 42z" />
    <glyph glyph-name="plus" unicode="+" horiz-adv-x="581" 
d="M517 285q0 26 -18 44t-44 18h-102v102q0 26 -18 44t-44 18t-44.5 -18t-18.5 -44v-102h-102q-26 0 -44 -18t-18 -44t18 -44t44 -18h102v-103q0 -26 18.5 -44t44.5 -18t44 18t18 44v103h102q26 0 44 18t18 44z" />
    <glyph glyph-name="comma" unicode="," horiz-adv-x="274" 
d="M212 58q0 41 -23 66.5t-58 25.5q-33 0 -56.5 -22.5t-23.5 -55.5q0 -28 17 -48.5t43 -27.5q-5 -20 -14 -31.5t-19 -20t-17 -15.5t-7 -19t8.5 -20t19.5 -8q10 0 32 12t43.5 34.5t38 55t16.5 74.5z" />
    <glyph glyph-name="hyphen" unicode="-" horiz-adv-x="509" 
d="M449 293q0 26 -18 44t-44 18h-265q-26 0 -44 -18t-18 -44q0 -25 18 -43t44 -18h265q26 0 44 18t18 43z" />
    <glyph glyph-name="period" unicode="." horiz-adv-x="282" 
d="M220 71q0 33 -23.5 56.5t-56.5 23.5t-56.5 -23.5t-23.5 -56.5t23.5 -56.5t56.5 -23.5t56.5 23.5t23.5 56.5z" />
    <glyph glyph-name="slash" unicode="/" horiz-adv-x="358" 
d="M360 724q8 24 -3.5 47t-36.5 31q-24 8 -46.5 -4t-30.5 -36l-243 -758q-8 -25 3.5 -47.5t36.5 -30.5q24 -8 46.5 3.5t30.5 36.5z" />
    <glyph glyph-name="zero" unicode="0" horiz-adv-x="560" 
d="M520 252v225q0 55 -15.5 102.5t-46 82.5t-75.5 55.5t-103 20.5t-103 -20.5t-75.5 -55.5t-46 -82.5t-15.5 -102.5v-225q0 -55 15.5 -102.5t46 -83t75.5 -55.5t103 -20t103 20t75.5 55.5t46 83t15.5 102.5zM382 248q0 -69 -28.5 -100.5t-73.5 -31.5q-46 0 -74 31.5
t-28 100.5v232q0 69 28 101t74 32q45 0 73.5 -32t28.5 -101v-232z" />
    <glyph glyph-name="one" unicode="1" horiz-adv-x="560" 
d="M529 65q0 27 -19 46.5t-46 19.5h-73v538q0 29 -20 49t-49 20q-20 0 -41 -13l-221 -146q-23 -15 -28.5 -41.5t9.5 -49.5q14 -23 40.5 -28.5t49.5 9.5l122 82v-420h-140q-28 0 -47 -19.5t-19 -46.5t19 -46t47 -19h351q27 0 46 19t19 46z" />
    <glyph glyph-name="two" unicode="2" horiz-adv-x="560" 
d="M506 66q0 27 -19 46t-47 19h-243q14 37 42.5 65.5t62.5 54l70.5 51.5t66 56.5t48.5 69.5t19 92q0 37 -12.5 76t-39.5 70.5t-70 51.5t-105 20q-122 0 -204 -65q-14 -11 -19 -24t-5 -27q0 -28 19.5 -46.5t45.5 -18.5q20 0 33.5 10.5t35.5 22.5q17 10 38 16.5t51 6.5
q25 0 43 -8t29.5 -21t16.5 -30t5 -34q0 -35 -19.5 -63t-50 -53t-67.5 -50t-71 -55q-24 -21 -44.5 -44.5t-36 -51.5t-24 -62t-8.5 -75q0 -29 18 -47.5t48 -18.5h327q28 0 47 19t19 47z" />
    <glyph glyph-name="three" unicode="3" horiz-adv-x="560" 
d="M491 200q0 75 -32.5 116.5t-86.5 60.5q108 44 108 164q0 31 -11.5 66t-37 64t-66.5 48t-101 19q-62 0 -103.5 -16t-64.5 -35q-35 -28 -35 -61q0 -29 17 -43.5t37 -14.5q18 0 30 8t26 16q18 11 39.5 17.5t48.5 6.5t45.5 -8t29.5 -21t16 -30.5t5 -35.5q0 -26 -9.5 -43
t-25.5 -27.5t-36.5 -15t-42.5 -4.5q-12 0 -25 -2.5t-23.5 -9t-17.5 -18t-7 -28.5q0 -18 6 -29.5t16 -18t22.5 -8.5t25.5 -2q24 0 44.5 -5t35.5 -16.5t24 -30t9 -46.5q0 -49 -29.5 -77.5t-81.5 -28.5q-26 0 -45.5 5t-38.5 16q-17 11 -29 17.5t-23 6.5q-24 0 -40.5 -17
t-16.5 -42q0 -29 24 -51q28 -28 70.5 -41.5t104.5 -13.5t108 17.5t76.5 47t45.5 67t15 77.5z" />
    <glyph glyph-name="four" unicode="4" horiz-adv-x="560" 
d="M532 184q0 26 -18.5 45t-44.5 19h-26v81q0 28 -19.5 47.5t-47.5 19.5t-47 -19.5t-19 -47.5v-81h-113l168 395q11 26 0.5 52.5t-36.5 37.5q-13 6 -27 6q-13 0 -25 -5t-21.5 -14.5t-15.5 -22.5l-203 -481q-3 -7 -5.5 -14t-2.5 -18q0 -28 18.5 -46t44.5 -18h218v-63
q0 -27 19 -46.5t47 -19.5t47.5 19.5t19.5 46.5v63h26q26 0 44.5 19t18.5 45z" />
    <glyph glyph-name="five" unicode="5" horiz-adv-x="560" 
d="M499 230q0 110 -57.5 169.5t-154.5 59.5q-40 0 -76 -15l5 154h184q27 0 46.5 19t19.5 46t-19.5 46.5t-46.5 19.5h-242q-25 0 -44.5 -18t-21.5 -46l-10 -308q-2 -32 17.5 -50t47.5 -18q17 0 27.5 7.5l26.5 18.5q14 11 30.5 18.5t43.5 7.5q35 0 60.5 -25.5t25.5 -85.5
q0 -24 -5.5 -45.5t-17.5 -37t-32 -25t-48 -9.5q-33 0 -58 12t-38 20q-10 7 -19.5 9.5t-18.5 2.5q-27 0 -44.5 -20t-17.5 -46q0 -16 8 -31.5t27 -27.5q35 -22 75 -31.5t86 -9.5q63 0 108.5 20.5t75 54t43.5 76.5t14 88z" />
    <glyph glyph-name="six" unicode="6" horiz-adv-x="560" 
d="M515 226q0 57 -18.5 98.5t-50 69.5t-72 41.5t-85.5 13.5q-28 0 -58 -11q25 54 61 101t71 83q21 21 21 47q0 27 -19 47.5t-50 20.5q-12 0 -25 -5t-24 -16q-42 -43 -81.5 -95t-71 -109.5t-50.5 -120t-19 -125.5q0 -56 15 -105.5t44 -87.5t72.5 -60t100.5 -22q52 0 96 16.5
t75.5 47t49.5 74t18 97.5zM377 222q0 -48 -23.5 -77t-75.5 -29q-17 0 -34 8t-31 25.5t-22.5 46t-8.5 70.5q0 17 3 34q14 11 37 20.5t53 9.5q51 0 76.5 -30t25.5 -78z" />
    <glyph glyph-name="seven" unicode="7" horiz-adv-x="560" 
d="M516 663q0 27 -19.5 46.5t-46.5 19.5h-351q-27 0 -46.5 -19.5t-19.5 -46.5t19.5 -46t46.5 -19h257l-205 -513q-11 -27 1 -53t38 -36q27 -11 53 1t36 38l229 592q3 8 5.5 18t2.5 18z" />
    <glyph glyph-name="eight" unicode="8" horiz-adv-x="560" 
d="M525 196q0 41 -10 72t-27 54.5t-40.5 41t-50.5 32.5q54 38 72.5 76t18.5 78q0 42 -15 76t-42.5 59t-66 38.5t-86.5 13.5q-47 0 -85.5 -13t-66 -37.5t-43 -60.5t-15.5 -82q0 -64 26.5 -103t65.5 -65q-60 -35 -92.5 -78t-32.5 -104q0 -45 15.5 -82t46.5 -64t77.5 -42
t107.5 -15q59 0 104.5 16.5t76 44t46.5 65t16 79.5zM358 534q0 -29 -18 -52t-50 -41q-19 8 -35.5 16.5t-28.5 20t-19 26t-7 33.5q0 38 22.5 59.5t57.5 21.5t56.5 -21t21.5 -63zM387 207q0 -43 -30 -69t-79 -26q-45 0 -75 25.5t-30 73.5q0 36 27.5 64t66.5 46l47 -21t38 -23
t25.5 -30t9.5 -40z" />
    <glyph glyph-name="nine" unicode="9" horiz-adv-x="560" 
d="M517 462q0 56 -15 106t-44 87.5t-72 59.5t-100 22q-53 0 -97 -16t-75.5 -46.5t-49.5 -74t-18 -97.5q0 -57 18.5 -98.5t50 -69.5t72 -41.5t85.5 -13.5q14 0 29.5 2.5t29.5 8.5q-26 -54 -61.5 -101.5t-71.5 -82.5q-21 -22 -21 -47q0 -28 19 -48.5t50 -20.5q12 0 25 5t24 16
q42 43 81.5 95t71 110t50.5 120t19 125zM379 462q0 -8 -0.5 -17t-2.5 -17q-14 -11 -37 -20t-53 -9q-51 0 -76.5 29.5t-25.5 77.5t24 77.5t76 29.5q16 0 33 -8t31 -25.5t22.5 -46.5t8.5 -71z" />
    <glyph glyph-name="colon" unicode=":" horiz-adv-x="282" 
d="M220 373q0 34 -23.5 57t-56.5 23t-56.5 -23t-23.5 -57q0 -33 23.5 -56t56.5 -23t56.5 23t23.5 56zM220 71q0 33 -23.5 56.5t-56.5 23.5t-56.5 -23.5t-23.5 -56.5t23.5 -56.5t56.5 -23.5t56.5 23.5t23.5 56.5z" />
    <glyph glyph-name="semicolon" unicode=";" horiz-adv-x="278" 
d="M215 373q0 16 -6.5 31t-17.5 25.5t-25.5 17t-30.5 6.5q-33 0 -56.5 -23.5t-23.5 -56.5q0 -32 23.5 -55.5t56.5 -23.5q16 0 30.5 6.5t25.5 17t17.5 25t6.5 30.5zM216 58q0 41 -23 66.5t-58 25.5q-33 0 -56.5 -22.5t-23.5 -55.5q0 -28 17 -48.5t43 -27.5q-5 -20 -14 -31.5
t-19 -20t-17 -15.5t-7 -19t8.5 -20t19.5 -8q10 0 32 12t43.5 34.5t38 55t16.5 74.5z" />
    <glyph glyph-name="less" unicode="&#x3c;" horiz-adv-x="463" 
d="M385 46q16 17 15 41t-18 40l-177 165l177 165q17 17 18 40.5t-15 40.5q-17 17 -40.5 18t-40.5 -15l-217 -203q-9 -8 -16 -19t-7 -27t7 -26.5t16 -19.5l217 -202q17 -17 40.5 -16t40.5 18z" />
    <glyph glyph-name="equal" unicode="=" horiz-adv-x="615" 
d="M534 413q0 26 -18 44t-44 18h-329q-26 0 -44 -18t-18 -44t18 -44t44 -18h329q26 0 44 18t18 44zM534 175q0 26 -18 44t-44 18h-329q-26 0 -44 -18t-18 -44t18 -44t44 -18h329q26 0 44 18t18 44z" />
    <glyph glyph-name="greater" unicode="&#x3e;" horiz-adv-x="463" 
d="M399 292q0 16 -7 27t-16 19l-217 203q-17 16 -40.5 15t-40.5 -18q-16 -17 -15 -40.5t18 -40.5l177 -165l-177 -165q-17 -16 -18 -40t15 -41q17 -17 40.5 -18t40.5 16l217 202q9 9 16 19.5t7 26.5z" />
    <glyph glyph-name="question" unicode="?" horiz-adv-x="495" 
d="M443 550q0 50 -19 85.5t-49 58.5t-67.5 33.5t-73.5 10.5q-51 0 -85 -10t-64 -29q-17 -10 -30.5 -26.5t-13.5 -36.5q0 -21 16 -40t47 -19q10 0 17 2.5t14 6.5q17 12 35.5 21.5t48.5 9.5q34 0 60 -18t26 -64q0 -18 -6 -32t-17.5 -26.5t-26.5 -25l-33 -26.5
q-24 -19 -38.5 -35t-22.5 -33t-11 -35.5t-3 -41.5q0 -29 16.5 -46.5t45.5 -17.5q28 0 45 16.5t17 41.5q0 13 2 23.5t9.5 22t21.5 25.5t39 33q19 15 37 32t32 37.5t22.5 45.5t8.5 57zM290 71q0 33 -23 56.5t-57 23.5q-33 0 -56 -23.5t-23 -56.5t23 -56.5t56 -23.5
q34 0 57 23.5t23 56.5z" />
    <glyph glyph-name="at" unicode="@" horiz-adv-x="821" 
d="M758 384q0 55 -17.5 108.5t-57.5 96t-105.5 68.5t-160.5 26q-89 0 -155 -34t-110 -88t-66 -122t-22 -135q0 -74 20.5 -135t62 -105.5t103 -69t143.5 -24.5q47 0 79.5 5.5t62.5 13.5q23 6 32 17t9 24q0 14 -9 25t-28 11q-10 0 -20 -4.5t-33 -9.5q-41 -9 -93 -9
q-66 0 -113 20t-77.5 55t-44.5 84t-14 106q0 47 15.5 100t49 98t85.5 74.5t125 29.5q71 0 120.5 -18.5t80 -50t44.5 -73t14 -87.5q0 -29 -7 -57t-20 -49.5t-32 -35t-43 -13.5q-49 0 -49 60q0 28 7 56l21 97q2 11 -2 26.5t-23 21.5q-23 8 -46.5 12t-51.5 4q-41 0 -74.5 -18.5
t-57.5 -49t-37 -71t-13 -83.5q0 -25 5.5 -47.5t18 -40t32 -27.5t46.5 -10q32 0 60 15t48 41q18 -33 46 -45.5t61 -12.5q46 0 81.5 19t60 51t37 73.5t12.5 86.5zM460 418l-21 -89q-9 -41 -25.5 -60t-37.5 -19q-30 0 -30 38q0 22 6 46t17 44t26 32.5t33 12.5q7 0 16 -1.5
t16 -3.5z" />
    <glyph glyph-name="A" unicode="A" horiz-adv-x="579" 
d="M566 75q-36 158 -82.5 303.5t-104.5 288.5q-18 45 -42.5 58.5t-47.5 13.5t-46.5 -13.5t-42.5 -58.5q-57 -143 -104 -288.5t-83 -303.5q-5 -20 -0.5 -35.5t14.5 -26t24 -16.5t29 -6q21 0 39 13t25 41l12.5 54t13.5 53h235q7 -26 13.5 -53l12.5 -54q7 -29 25.5 -41.5
t40.5 -12.5q15 0 29 6t24.5 16.5t15 26t0.5 35.5zM372 274h-169l40.5 125.5t43.5 123.5q46 -122 85 -249z" />
    <glyph glyph-name="B" unicode="B" horiz-adv-x="642" 
d="M586 188v28q0 51 -29 95.5t-88 63.5q46 20 67.5 57.5t21.5 86.5v28q0 34 -11.5 67t-38 58.5t-69 41t-103.5 15.5h-190q-29 0 -48.5 -20t-19.5 -49v-591q0 -29 19.5 -49t48.5 -20h215q62 0 105 14.5t69.5 40t38.5 60t12 73.5zM421 501q0 -21 -9 -35.5t-24 -23.5
t-35.5 -12.5t-43.5 -3.5h-94v175h119q43 0 65 -20.5t22 -53.5v-26zM448 206q0 -34 -20 -56.5t-70 -22.5h-143v177h136q47 0 72 -22t25 -56v-20z" />
    <glyph glyph-name="C" unicode="C" horiz-adv-x="546" 
d="M516 640q0 28 -29 51q-27 23 -70 35t-84 12q-74 0 -125 -24t-83 -66.5t-46.5 -100.5t-14.5 -126v-113q0 -71 14.5 -129t46 -100t81.5 -65t122 -23q17 0 38.5 3t43 9.5t42 16t35.5 22.5q14 12 20.5 25.5t6.5 27.5q0 26 -17 42t-40 16q-11 0 -20.5 -3.5t-22.5 -11.5
q-39 -22 -86 -22q-31 0 -54.5 10t-39.5 32.5t-24.5 59.5t-8.5 92v107q0 105 33 151t99 46q25 0 43.5 -5.5t32.5 -14.5q14 -8 23.5 -12t20.5 -4q32 1 47.5 20t15.5 42z" />
    <glyph glyph-name="D" unicode="D" horiz-adv-x="657" 
d="M593 270v188q0 41 -9 88.5t-36.5 88t-78 67.5t-133.5 27h-190q-29 0 -48.5 -20t-19.5 -49v-591q0 -29 19.5 -49t48.5 -20h190q83 0 133.5 26.5t78 67t36.5 87.5t9 89zM456 270q0 -32 -5.5 -58t-20.5 -44.5t-40 -28.5t-64 -10h-111v468h111q39 0 64 -10t40 -28.5
t20.5 -44.5t5.5 -58v-186z" />
    <glyph glyph-name="E" unicode="E" horiz-adv-x="567" 
d="M533 66q0 27 -19 46t-46 19h-253v170h217q26 0 45 18.5t19 44.5t-19 45t-45 19h-217v169h240q27 0 46 19.5t19 46.5t-19 46.5t-46 19.5h-312q-27 0 -46 -19.5t-19 -46.5v-597q0 -28 19 -47t46 -19h325q27 0 46 19t19 47z" />
    <glyph glyph-name="F" unicode="F" horiz-adv-x="539" 
d="M513 663q0 27 -19 46.5t-47 19.5h-304q-27 0 -46 -19.5t-19 -46.5v-603q0 -29 19.5 -49t48.5 -20t49 20t20 49v241h192q26 0 44.5 18.5t18.5 44.5t-18.5 45t-44.5 19h-192v169h232q28 0 47 19.5t19 46.5z" />
    <glyph glyph-name="G" unicode="G" horiz-adv-x="628" 
d="M574 243v86q0 30 -18 49.5t-47 19.5h-134q-26 0 -45 -19t-19 -45t19 -45t45 -19h66v-31q0 -27 -5 -49.5t-18 -39t-35 -26t-55 -9.5q-31 0 -54.5 10t-39.5 33t-24.5 60t-8.5 92v107q0 105 33.5 151t98.5 46q25 0 44 -6t34 -14q14 -8 24.5 -12.5t22.5 -4.5q32 1 47.5 19
t15.5 41q0 29 -30 53q-29 24 -72.5 36t-85.5 12q-74 0 -125 -24t-83 -66.5t-46.5 -100.5t-14.5 -126v-113q0 -71 14.5 -129t46 -100t81.5 -65t122 -23q68 0 115 21t76 56t42 80.5t13 94.5z" />
    <glyph glyph-name="H" unicode="H" horiz-adv-x="690" 
d="M613 60v609q0 29 -20 49t-49 20t-49 -20t-20 -49v-250h-260v250q0 29 -20 49t-49 20t-48.5 -20t-19.5 -49v-609q0 -29 19.5 -49t48.5 -20t49 20t20 49v237h260v-237q0 -29 20 -49t49 -20t49 20t20 49z" />
    <glyph glyph-name="I" unicode="I" horiz-adv-x="293" 
d="M215 60v609q0 29 -20 49t-49 20t-48.5 -20t-19.5 -49v-609q0 -29 19.5 -49t48.5 -20t49 20t20 49z" />
    <glyph glyph-name="J" unicode="J" horiz-adv-x="464" 
d="M399 269v400q0 29 -20 49t-49 20t-49 -20t-20 -49v-400q0 -41 -5.5 -69t-19 -46t-36.5 -26t-57 -8q-24 0 -45 3q-11 1 -18 2t-14 1q-31 0 -47 -19t-16 -47q0 -22 13 -40t42 -23q39 -6 85 -6q72 0 121 21t79 58t43 88t13 111z" />
    <glyph glyph-name="K" unicode="K" horiz-adv-x="598" 
d="M575 91q-45 90 -95.5 174t-105.5 163l171 199q19 21 16.5 49t-24.5 46q-21 16 -44 16q-31 0 -51 -25l-227 -284v240q0 29 -20 49t-49 20t-48.5 -20t-19.5 -49v-609q0 -29 19.5 -49t48.5 -20t49 20t20 49v187l65 74q93 -137 171 -291q11 -20 27 -29.5t33 -9.5t33 8
t26 21.5t12.5 31.5t-7.5 39z" />
    <glyph glyph-name="L" unicode="L" horiz-adv-x="542" 
d="M530 66q0 27 -19.5 46t-46.5 19h-249v538q0 29 -20 49t-49 20t-48.5 -20t-19.5 -49v-603q0 -28 19 -47t46 -19h321q27 0 46.5 19t19.5 47z" />
    <glyph glyph-name="M" unicode="M" horiz-adv-x="805" 
d="M727 674q0 26 -18.5 45t-46.5 19q-19 0 -36 -7t-28 -30l-195 -397l-193 393q-11 22 -26 31.5t-41 9.5q-27 0 -46 -18t-19 -46v-620q0 -26 18.5 -44.5t44.5 -18.5t44.5 18.5t18.5 44.5v381l136 -284q10 -20 26.5 -30t35.5 -10q20 0 36 10.5t26 30.5l136 283v-380
q0 -26 18.5 -45t45.5 -19q26 0 44.5 19t18.5 45v619z" />
    <glyph glyph-name="N" unicode="N" horiz-adv-x="672" 
d="M595 54v620q0 26 -19 45t-45 19t-44.5 -19t-18.5 -45v-398l-256 426q-23 36 -67 36q-32 0 -49.5 -19t-17.5 -45v-620q0 -26 18.5 -44.5t44.5 -18.5t44.5 18.5t18.5 44.5v398l257 -427q21 -34 67 -34q30 0 48.5 18.5t18.5 44.5z" />
    <glyph glyph-name="O" unicode="O" horiz-adv-x="648" 
d="M585 261v207q0 51 -13.5 100t-44.5 86.5t-80.5 60.5t-122.5 23t-123 -23t-80.5 -60.5t-43.5 -86.5t-13 -100v-207q0 -51 13 -100t43.5 -87t80.5 -61t123 -23t122.5 23t80.5 61t44.5 87t13.5 100zM447 261q0 -32 -5.5 -58.5t-20 -46t-38 -30.5t-59.5 -11t-59.5 10.5
t-38 30t-20 46.5t-5.5 59v207q0 32 5.5 58.5t20 46t38 30t59.5 10.5t59.5 -11t38 -30t20 -46t5.5 -58v-207z" />
    <glyph glyph-name="P" unicode="P" horiz-adv-x="602" 
d="M565 471v52q0 37 -11.5 74t-38 66.5t-70.5 47.5t-109 18h-190q-29 0 -48.5 -20t-19.5 -49v-600q0 -29 19.5 -49t48.5 -20t49 20t20 49v210h127q53 0 94.5 14.5t70 41t43.5 63.5t15 82zM427 474q0 -15 -4.5 -29t-15 -25.5t-28 -18t-43.5 -6.5h-121v204h109q31 0 51.5 -7
t31.5 -18t15.5 -25t4.5 -29v-46z" />
    <glyph glyph-name="Q" unicode="Q" horiz-adv-x="648" 
d="M602 -20q17 18 18 42t-20 44l-49 44q18 34 26 72.5t8 78.5v207q0 51 -13.5 100t-44.5 86.5t-80.5 60.5t-122.5 23t-123 -23t-80.5 -60.5t-43.5 -86.5t-13 -100v-207q0 -51 13 -100t43.5 -87t80.5 -61t123 -23q45 0 81 9t64 26l47 -47q20 -20 44.5 -18t41.5 20zM447 261
q0 -14 -1 -27t-3 -25q-19 17 -42 18t-40 -17q-18 -18 -16 -41t21 -41l6 -7q-21 -6 -48 -6q-36 0 -59.5 10.5t-38 30t-20 46.5t-5.5 59v207q0 32 5.5 58.5t20 46t38 30t59.5 10.5t59.5 -11t38 -30t20 -46t5.5 -58v-207z" />
    <glyph glyph-name="R" unicode="R" horiz-adv-x="621" 
d="M568 88q-26 57 -55 112t-61 110q55 23 85 68t30 108v39q0 98 -58 151t-174 53h-189q-29 0 -48.5 -20t-19.5 -49v-600q0 -29 19.5 -49t48.5 -20t49 20t20 49v224h93q38 -63 71.5 -125.5t62.5 -125.5q11 -24 27 -33t33 -9t33 7.5t26.5 20.5t13 31t-6.5 38zM429 486
q0 -39 -29 -58t-72 -19h-113v191h117q97 0 97 -75v-39z" />
    <glyph glyph-name="S" unicode="S" horiz-adv-x="586" 
d="M547 227q0 53 -19.5 92.5t-61.5 65.5q-17 10 -38.5 18t-45.5 14.5t-49 12t-48 11.5q-51 13 -75 30t-24 55q0 41 32 64t91 23q23 0 39.5 -2.5t29.5 -5.5q23 -5 37.5 -11t29.5 -6q30 0 46.5 20t16.5 45q0 20 -11.5 37t-36.5 25q-38 13 -77.5 18t-84.5 5q-51 0 -96.5 -15
t-79.5 -44t-54 -72t-20 -99q0 -63 24.5 -100t62.5 -59q17 -9 40 -16.5t47 -13.5l47.5 -11.5t42.5 -10.5q57 -16 77.5 -34t20.5 -51q0 -45 -34 -71t-110 -26q-27 0 -47.5 3t-36.5 7q-29 7 -45.5 14.5t-33.5 7.5q-28 0 -43.5 -19.5t-15.5 -45.5q0 -19 11 -36.5t35 -26.5
q43 -16 89 -22t99 -6q58 0 107 14.5t85 44t56.5 74t20.5 103.5z" />
    <glyph glyph-name="T" unicode="T" horiz-adv-x="602" 
d="M589 662q0 28 -19.5 47.5t-47.5 19.5h-442q-28 0 -47.5 -19.5t-19.5 -47.5t19.5 -47.5t47.5 -19.5h152v-535q0 -29 20 -49t49 -20t49 20t20 49v535h152q28 0 47.5 19.5t19.5 47.5z" />
    <glyph glyph-name="U" unicode="U" horiz-adv-x="649" 
d="M585 237v432q0 29 -20 49t-49 20t-49 -20t-20 -49v-426q0 -23 -5 -46.5t-19 -42.5t-38 -31t-61 -12q-38 0 -62 12t-37.5 31t-19 42.5t-5.5 46.5v426q0 29 -19.5 49t-48.5 20t-48.5 -20t-19.5 -49v-432q0 -51 15.5 -95.5t47.5 -78t81 -53t116 -19.5t116 19.5t81.5 53
t48 78t15.5 95.5z" />
    <glyph glyph-name="V" unicode="V" horiz-adv-x="576" 
d="M562 656q6 18 2 33.5t-14 26t-24 16.5t-29 6q-20 0 -36.5 -11.5t-23.5 -36.5l-68.5 -231t-78.5 -240q-41 120 -76 238.5l-67 229.5q-8 26 -26 38.5t-38 12.5q-15 0 -30 -6.5t-25.5 -18t-15 -27.5t1.5 -36q40 -142 86.5 -287.5l99.5 -299.5q14 -41 35.5 -56.5t50.5 -15.5
q26 0 49 16t37 56l101.5 302.5t88.5 290.5z" />
    <glyph glyph-name="W" unicode="W" horiz-adv-x="887" 
d="M870 674q0 30 -21.5 47t-47.5 17q-21 0 -40 -13t-24 -41q-25 -121 -51.5 -236t-57.5 -232q-29 111 -55 222t-48 219q-8 35 -25.5 58t-55.5 23q-36 0 -55 -23.5t-27 -58.5q-22 -107 -48.5 -218l-55.5 -222q-30 117 -56.5 232t-51.5 236q-6 28 -24.5 41t-39.5 13
q-26 0 -47.5 -17t-21.5 -47v-9q0 -4 2 -9q34 -156 68.5 -298t75.5 -289q23 -78 90 -78q29 0 53.5 19t35.5 57l52 197t49 202l49.5 -202l52.5 -197q11 -38 35.5 -57t53.5 -19q32 0 55 20t34 58q41 147 76 289t69 298q1 5 1.5 9.5t0.5 8.5z" />
    <glyph glyph-name="X" unicode="X" horiz-adv-x="557" 
d="M554 56q0 17 -10 36q-42 72 -89 143l-96 143l84.5 128.5t75.5 130.5q10 17 10 34q0 29 -22 48t-50 19q-16 0 -30.5 -8.5t-25.5 -28.5q-28 -52 -58.5 -102l-64.5 -101q-34 51 -64.5 101.5l-59.5 102.5q-10 19 -24.5 27.5t-29.5 8.5q-28 0 -49.5 -19t-21.5 -47q0 -17 9 -33
q36 -66 76.5 -130.5l83.5 -128.5l-96 -143t-89 -144q-10 -17 -10 -36q0 -28 22 -47t49 -19q16 0 30.5 8t25.5 27l72 118l77 117l78 -117.5l72 -118.5q11 -18 25.5 -26t29.5 -8q13 0 25.5 5t22.5 13.5t16 20.5t6 26z" />
    <glyph glyph-name="Y" unicode="Y" horiz-adv-x="525" 
d="M525 673q0 28 -22 46.5t-48 18.5q-17 0 -32.5 -9.5t-24.5 -30.5l-61.5 -132l-72.5 -144l-72 143.5l-62 131.5q-9 21 -25 31t-34 10q-13 0 -26 -5t-23 -14t-16 -21t-6 -26q0 -16 7 -30q75 -171 186 -375v-207q0 -29 20 -49t49 -20t49 20t20 49v208l102.5 196.5t84.5 179.5
q7 15 7 29z" />
    <glyph glyph-name="Z" unicode="Z" horiz-adv-x="557" 
d="M531 66q0 27 -18.5 46t-45.5 19h-260l302 472q8 12 14.5 28.5t6.5 31.5q0 28 -17 47t-47 19h-374q-26 0 -45 -19.5t-19 -46.5t19 -46.5t45 -19.5h254l-299 -467q-9 -14 -15 -30.5t-6 -33.5q0 -28 18.5 -47t46.5 -19h376q27 0 45.5 19t18.5 47z" />
    <glyph glyph-name="bracketleft" unicode="[" horiz-adv-x="335" 
d="M286 -31q0 28 -19 47t-46 19h-33v658h33q27 0 46 19t19 46q0 28 -19 47t-46 19h-105q-28 0 -47 -19t-19 -47v-789q0 -27 19 -46t47 -19h105q27 0 46 19t19 46z" />
    <glyph glyph-name="backslash" unicode="\" horiz-adv-x="390" 
d="M390 13l-276 728q-9 23 -31.5 33t-45.5 2q-23 -9 -33 -32t-2 -46l276 -728q9 -23 32 -33t46 -1q23 8 33 31t1 46z" />
    <glyph glyph-name="bracketright" unicode="]" horiz-adv-x="335" 
d="M285 -31v789q0 28 -19 47t-46 19h-105q-28 0 -47 -19t-19 -47q0 -27 19 -46t47 -19h33v-658h-33q-28 0 -47 -19t-19 -47q0 -27 19 -46t47 -19h105q27 0 46 19t19 46z" />
    <glyph glyph-name="asciicircum" unicode="^" horiz-adv-x="522" 
d="M466 476l-143 220q-10 15 -25.5 25.5t-36.5 10.5q-22 0 -37 -10.5t-25 -25.5l-144 -220q-14 -21 -9 -45t26 -38q20 -14 44.5 -9t38.5 25l106 164l106 -164q14 -20 38.5 -25t44.5 9q21 14 25.5 38t-9.5 45z" />
    <glyph glyph-name="underscore" unicode="_" horiz-adv-x="481" 
d="M539 -140q0 24 -17 41t-41 17h-481q-24 0 -40.5 -17t-16.5 -41q0 -23 16.5 -40t40.5 -17h481q24 0 41 17t17 40z" />
    <glyph glyph-name="grave" unicode="`" horiz-adv-x="530" 
d="M342 662l-56 113q-8 18 -29 27.5t-45 -3.5q-23 -12 -28 -33t6 -38l66 -107q12 -20 29 -25.5t34 2.5q18 9 26 26.5t-3 37.5z" />
    <glyph glyph-name="a" unicode="a" horiz-adv-x="533" 
d="M502 49q0 14 -5.5 23.5t-13.5 16.5q-11 10 -18.5 20t-7.5 36v167q0 56 -11 96.5t-35 66.5t-62 38.5t-92 12.5q-40 0 -83.5 -8t-75.5 -29q-23 -15 -26 -36t7.5 -37.5t31 -24t45.5 5.5q17 9 37.5 15.5t52.5 6.5q46 0 61 -23.5t15 -67.5v-19h-89q-97 0 -147.5 -40.5
t-50.5 -111.5v-7q0 -71 44.5 -113.5t135.5 -42.5q33 0 70.5 8.5t66.5 33.5q10 -14 20 -21q10 -8 26 -14.5t36 -6.5q31 0 49.5 13t18.5 42zM322 168q0 -40 -21.5 -59t-56.5 -19q-39 0 -57 15t-18 43v7q0 25 17.5 41t62.5 16h73v-44z" />
    <glyph glyph-name="b" unicode="b" horiz-adv-x="551" 
d="M499 210v85q0 55 -8 98t-28.5 72.5t-54.5 45t-85 15.5q-33 0 -62.5 -11.5t-49.5 -27.5v170q0 28 -19.5 47.5t-47.5 19.5t-48 -19.5t-20 -47.5v-512q0 -26 -7 -36t-19 -20q-8 -6 -13 -16t-5 -24q0 -29 19 -42t48 -13q16 0 32.5 5.5t30.5 16.5q5 4 9.5 8t8.5 9
q25 -18 58.5 -28.5t68.5 -10.5q98 0 145 56t47 160zM365 199q0 -45 -19 -68t-62 -23q-19 0 -38 7t-35 19v244q16 16 36.5 25t40.5 9q43 0 60 -24.5t17 -70.5v-118z" />
    <glyph glyph-name="c" unicode="c" horiz-adv-x="449" 
d="M418 428q9 24 0 41t-26 28q-29 17 -64.5 23t-66.5 6q-52 0 -91.5 -18.5t-65.5 -50.5t-39.5 -75t-13.5 -91v-70q0 -49 12 -90.5t37 -72t64.5 -47.5t95.5 -17q32 0 65 5.5t65 22.5q17 10 26 27t1 42q-7 22 -27 30.5t-40 -0.5q-24 -11 -43.5 -14t-37.5 -3q-42 0 -62.5 29.5
t-20.5 80.5v92q0 52 23 81t65 29q25 0 42 -4.5t34 -12.5q20 -9 40 -1t28 30z" />
    <glyph glyph-name="d" unicode="d" horiz-adv-x="551" 
d="M519 49q0 14 -5 24t-13 16q-12 10 -19 20t-7 36v512q0 28 -20 47.5t-48 19.5t-48 -19.5t-20 -47.5l1 -162q-21 14 -49 22.5t-57 8.5q-51 0 -86 -16.5t-56.5 -47t-31 -74.5t-9.5 -99v-81q0 -105 47 -159.5t146 -54.5q33 0 67 10.5t59 29.5q10 -11 19 -18
q14 -11 30.5 -16.5t32.5 -5.5q29 0 48 13t19 42zM340 135q-35 -27 -73 -27q-44 0 -62.5 22.5t-18.5 67.5v117q0 47 18 72t62 25q18 0 38 -8.5t36 -22.5v-246z" />
    <glyph glyph-name="e" unicode="e" horiz-adv-x="515" 
d="M471 266v43q0 43 -11.5 82.5t-36 69.5t-64.5 47.5t-97 17.5q-55 0 -94.5 -18t-65.5 -48t-38.5 -70t-12.5 -84v-93q0 -44 11 -83.5t36 -69.5t65 -48t98 -18q36 0 75.5 6.5t81.5 25.5q19 8 27 25.5t1 40.5q-6 22 -25.5 32t-39.5 2q-26 -11 -50.5 -16.5t-61.5 -5.5
q-42 0 -62.5 25t-20.5 70v19h239q19 0 32.5 14t13.5 34zM341 332v-13h-155v13q0 43 19.5 66t59.5 23t58 -23t18 -66z" />
    <glyph glyph-name="f" unicode="f" horiz-adv-x="370" 
d="M381 675q0 24 -17.5 41.5t-41.5 17.5h-48q-97 0 -145 -53t-48 -147v-14h-15q-23 0 -39 -16t-16 -39t16 -39.5t39 -16.5h15v-348q0 -28 19.5 -47.5t48.5 -19.5q28 0 47.5 19.5t19.5 47.5v348h64q23 0 39 16.5t16 39.5t-16 39t-39 16h-64v14q0 44 18.5 63t56.5 19h31
q24 0 41.5 17t17.5 42z" />
    <glyph glyph-name="g" unicode="g" horiz-adv-x="541" 
d="M475 458q0 28 -18 48t-50 20q-21 0 -37.5 -12t-24.5 -30q-23 20 -51.5 31t-60.5 11q-50 0 -84.5 -15.5t-56.5 -45t-31.5 -72t-9.5 -96.5v-38q0 -55 9 -97.5t30 -71.5t56 -44t86 -15q28 0 56.5 9t51.5 23v-26q0 -110 -97 -110q-26 0 -42.5 3t-28.5 6.5l-22 6.5t-21 4
q-23 1 -39.5 -15.5t-16.5 -38.5q0 -19 11 -32t28 -21q30 -13 68 -18t73 -5q112 0 167 61.5t55 166.5v413zM340 378v-205q-17 -14 -38.5 -21t-38.5 -7q-44 0 -60.5 23t-16.5 68v81q0 95 77 95q19 0 39.5 -8.5t37.5 -25.5z" />
    <glyph glyph-name="h" unicode="h" horiz-adv-x="556" 
d="M490 61v276q0 42 -8.5 77t-28 59.5t-52 38.5t-79.5 14q-38 0 -68 -8.5t-53 -24.5v164q0 28 -19.5 47.5t-47.5 19.5q-29 0 -48.5 -19.5t-19.5 -47.5v-596q0 -28 19.5 -47.5t48.5 -19.5q28 0 47.5 19.5t19.5 47.5v297q14 19 35 30t49 11q22 0 36 -6.5t21.5 -17t10 -25
t2.5 -29.5v-260q0 -28 19.5 -47.5t47.5 -19.5q29 0 48.5 19.5t19.5 47.5z" />
    <glyph glyph-name="i" unicode="i" horiz-adv-x="268" 
d="M209 669q0 32 -22 53.5t-53 21.5q-32 0 -54 -21.5t-22 -53.5t22 -53.5t54 -21.5q31 0 53 21.5t22 53.5zM201 61v397q0 28 -19.5 48t-47.5 20q-29 0 -48.5 -20t-19.5 -48v-397q0 -28 19.5 -47.5t48.5 -19.5q28 0 47.5 19.5t19.5 47.5z" />
    <glyph glyph-name="j" unicode="j" horiz-adv-x="268" 
d="M209 669q0 32 -22 53.5t-53 21.5q-32 0 -54 -21.5t-22 -53.5t22 -53.5t54 -21.5q31 0 53 21.5t22 53.5zM201 458q0 26 -18.5 47t-48.5 21q-29 0 -48.5 -20t-19.5 -48v-431q0 -53 -18.5 -73.5t-57.5 -25.5q-26 -3 -40.5 -17.5t-14.5 -38.5q0 -23 14 -39t41 -16
q108 0 159.5 56t51.5 162v423z" />
    <glyph glyph-name="k" unicode="k" horiz-adv-x="508" 
d="M485 83q-26 63 -59.5 121.5t-69.5 112.5l111 106q18 17 18 42t-17 42q-17 18 -42 18.5t-43 -16.5l-182 -179v327q0 28 -19.5 47.5t-47.5 19.5q-29 0 -48.5 -19.5t-19.5 -47.5v-596q0 -28 19.5 -47.5t48.5 -19.5q28 0 47.5 19.5t19.5 47.5v110l61 58q29 -45 55 -94
t48 -100q9 -22 25 -31.5t33 -9.5q15 0 29.5 6.5t24.5 18.5t13 28.5t-5 35.5z" />
    <glyph glyph-name="l" unicode="l" horiz-adv-x="277" 
d="M246 49q0 14 -5.5 24t-13.5 16q-12 10 -21 20t-9 36v512q0 28 -19.5 47.5t-47.5 19.5t-48 -19.5t-20 -47.5v-524q0 -42 15 -71t38 -46q14 -11 30.5 -16.5t32.5 -5.5q29 0 48.5 13t19.5 42z" />
    <glyph glyph-name="m" unicode="m" horiz-adv-x="852" 
d="M786 61v277q0 42 -8.5 77t-28 59.5t-51.5 38t-79 13.5q-51 0 -88.5 -15t-63.5 -42q-20 27 -52 42t-82 15q-48 0 -85 -14t-63 -38q-8 13 -23 24q-29 21 -63 21q-29 0 -48 -13t-19 -42q0 -14 5 -23.5t13 -15.5q12 -11 21 -21t9 -36v-307q0 -28 19.5 -47.5t48.5 -19.5
q28 0 47.5 19.5t19.5 47.5v299q14 18 34.5 28.5t46.5 10.5q22 0 35.5 -6.5t21 -17t10.5 -25t3 -29.5v-260q0 -28 19.5 -47.5t47.5 -19.5t48 19.5t20 47.5v277q0 5 -0.5 10t-0.5 10q13 18 33.5 29.5t48.5 11.5q22 0 35.5 -6.5t21 -17t10 -25t2.5 -29.5v-260q0 -28 19.5 -47.5
t48.5 -19.5q28 0 47.5 19.5t19.5 47.5z" />
    <glyph glyph-name="n" unicode="n" horiz-adv-x="570" 
d="M504 61v276q0 42 -8.5 77t-28.5 59.5t-52 38.5t-80 14q-49 0 -86 -14t-64 -39q-10 15 -23 25q-14 11 -30.5 16t-32.5 5q-29 0 -48 -13t-19 -42q0 -14 5 -23.5t13 -15.5q12 -11 21 -21t9 -36v-307q0 -28 19.5 -47.5t48.5 -19.5q28 0 47.5 19.5t19.5 47.5v297q14 19 35 30
t48 11q22 0 36 -6.5t21.5 -17t10.5 -25t3 -29.5v-260q0 -28 19.5 -47.5t47.5 -19.5t48 19.5t20 47.5z" />
    <glyph glyph-name="o" unicode="o" horiz-adv-x="533" 
d="M481 207v106q0 43 -12.5 82t-39 68t-67 46t-96.5 17t-96.5 -17t-67 -46t-39 -68t-12.5 -82v-106q0 -44 12.5 -82.5t39 -67.5t67 -46t96.5 -17t96.5 17t67 46t39 67.5t12.5 82.5zM346 207q0 -45 -19 -68.5t-61 -23.5q-41 0 -60.5 23.5t-19.5 68.5v105q0 45 19.5 68.5
t60.5 23.5q42 0 61 -23.5t19 -68.5v-105z" />
    <glyph glyph-name="p" unicode="p" horiz-adv-x="551" 
d="M499 231v81q0 104 -46.5 159t-145.5 55q-33 0 -67 -11t-59 -29q-10 11 -19 18q-14 11 -30.5 16.5t-32.5 5.5q-29 0 -48 -13.5t-19 -42.5q0 -14 5 -23.5t13 -15.5q12 -11 19 -21t7 -36v-490q0 -28 20 -47.5t48 -19.5t47.5 19.5t19.5 47.5v140q20 -14 48 -22t57 -8
q51 0 86 16t56.5 47t31 74.5t9.5 99.5zM365 205q0 -47 -18 -72.5t-62 -25.5q-18 0 -38 8.5t-36 22.5v246q17 13 36 20.5t37 7.5q44 0 62.5 -22.5t18.5 -67.5v-117z" />
    <glyph glyph-name="q" unicode="q" horiz-adv-x="551" 
d="M519 470q0 29 -19 42.5t-48 13.5q-16 0 -32.5 -5.5t-30.5 -16.5q-9 -7 -19 -18q-24 18 -57.5 29t-68.5 11q-98 0 -145.5 -56.5t-47.5 -160.5v-85q0 -55 8.5 -97.5t28.5 -72t54.5 -45t85.5 -15.5q33 0 62.5 11t49.5 27l-1 -148q0 -28 20 -47.5t48 -19.5t48 19.5t20 47.5
v490q0 26 7 36t19 21q8 6 13 15.5t5 23.5zM340 385v-243q-16 -16 -36.5 -25.5t-40.5 -9.5q-43 0 -60 24.5t-17 70.5v119q0 45 19 68t62 23q19 0 38 -7.5t35 -19.5z" />
    <glyph glyph-name="r" unicode="r" horiz-adv-x="425" 
d="M418 438q6 20 0.5 40t-24.5 32q-11 7 -26.5 11t-35.5 4q-12 0 -29 -2t-35.5 -8.5t-38 -19t-36.5 -33.5q-10 19 -27.5 33.5t-45.5 21.5q-5 2 -11 2h-10q-31 0 -49 -13t-18 -42q0 -14 5 -23.5t13 -15.5q12 -11 21 -21t9 -36v-307q0 -28 19.5 -47.5t48.5 -19.5
q28 0 47.5 19.5t19.5 47.5v278q9 32 32.5 45t53.5 13q20 0 27.5 -1t15.5 -3q29 -6 48 8t26 37z" />
    <glyph glyph-name="s" unicode="s" horiz-adv-x="463" 
d="M425 159q0 41 -12 67.5t-31.5 43.5t-44 26t-49.5 15q-25 5 -47 9t-39 10t-27 15.5t-10 26.5q0 18 16 30.5t52 12.5q26 0 47.5 -4.5t50.5 -14.5q23 -7 43 4t27 33q8 22 -2.5 42.5t-33.5 28.5q-29 10 -60.5 16t-79.5 6q-38 0 -71.5 -10.5t-59.5 -31t-41 -50.5t-15 -70
q0 -37 10 -62t26.5 -41.5t38 -25.5t44.5 -15q25 -7 50.5 -11t45 -10t32 -16.5t12.5 -29.5q0 -23 -21.5 -36t-59.5 -13q-39 0 -61.5 5.5t-44.5 13.5q-21 8 -43 -1.5t-30 -34.5q-6 -21 2.5 -42.5t30.5 -29.5q26 -9 58.5 -15t85.5 -6q40 0 78.5 9t67.5 29t47 51t18 76z" />
    <glyph glyph-name="t" unicode="t" horiz-adv-x="381" 
d="M373 60q0 25 -17 42t-42 17h-19q-48 0 -64 27t-16 88v175h77q23 0 39 16.5t16 39.5t-16 39t-39 16h-77v68q0 28 -19.5 48t-47.5 20t-48 -20t-20 -48v-68h-16q-23 0 -39 -16t-16 -39t16 -39.5t39 -16.5h16v-177q0 -52 10.5 -95t33.5 -73.5t60.5 -47t91.5 -16.5h38
q25 0 42 17.5t17 42.5z" />
    <glyph glyph-name="u" unicode="u" horiz-adv-x="571" 
d="M540 49q0 14 -5.5 24t-13.5 16q-12 10 -21 20t-9 36v313q0 28 -19.5 48t-47.5 20t-48 -20t-20 -48v-296q-13 -19 -34 -30t-49 -11q-22 0 -35.5 5.5t-21 15.5t-10.5 24.5t-3 31.5v260q0 28 -20 48t-48 20t-47.5 -20t-19.5 -48v-277q0 -42 9.5 -76t29.5 -59t52 -38.5
t77 -13.5q48 0 84.5 13.5t62.5 37.5q11 -18 26 -29q14 -11 30.5 -16.5t32.5 -5.5q29 0 48.5 13t19.5 42z" />
    <glyph glyph-name="v" unicode="v" horiz-adv-x="496" 
d="M476 443q6 18 2.5 33.5t-13 26.5t-23 17t-28.5 6q-19 0 -35 -10.5t-24 -33.5l-53.5 -160l-56.5 -159q-14 37 -28 78l-27.5 82l-26.5 81.5l-25 77.5q-8 23 -23.5 33.5t-33.5 10.5q-14 0 -27.5 -6t-23 -16.5t-13 -25t2.5 -32.5q29 -96 64.5 -196.5t70.5 -188.5
q17 -42 38.5 -54.5t50.5 -12.5q26 0 48.5 12t40.5 55q38 89 74.5 187t68.5 195z" />
    <glyph glyph-name="w" unicode="w" horiz-adv-x="730" 
d="M709 454q3 17 -1 30.5t-13 22.5t-21.5 14t-25.5 5q-20 0 -37.5 -11.5t-22.5 -37.5q-15 -71 -34.5 -152.5t-41.5 -159.5q-22 79 -39.5 150t-33.5 148q-6 27 -22.5 45t-50.5 18q-35 0 -52 -18t-23 -45l-34 -148t-39 -150q-22 78 -41.5 159.5t-34.5 152.5q-6 26 -23 37.5
t-37 11.5q-13 0 -25.5 -5t-21.5 -14t-13.5 -22.5t-0.5 -30.5l22 -96t25.5 -102.5l27.5 -102.5t29 -97q11 -33 34.5 -47.5t51.5 -14.5t51 14t32 46l36.5 130.5l34.5 130.5l34 -130.5t37 -130.5q9 -32 32 -46t51 -14t51.5 14.5t34.5 47.5q15 46 29 97l27.5 102.5t25.5 102.5z
" />
    <glyph glyph-name="x" unicode="x" horiz-adv-x="465" 
d="M436 91q-25 49 -57 92.5t-67 86.5q31 40 60 81.5t49 86.5q9 18 6.5 34t-12 28t-24 19t-30.5 7q-17 0 -32 -9t-25 -29q-14 -29 -32 -58t-38 -57q-19 27 -35.5 55t-30.5 57q-11 22 -27.5 31.5t-34.5 9.5q-17 0 -32.5 -7.5t-26 -20.5t-13 -30.5t6.5 -37.5q21 -46 49.5 -86.5
t59.5 -80.5l-65 -86.5t-56 -93.5q-9 -18 -7 -34.5t11.5 -28.5t24.5 -19t31 -7t31 8t24 28q16 30 38.5 64.5t46.5 67.5q23 -31 43.5 -63t37.5 -66q11 -20 27 -29.5t33 -9.5t33 7.5t26.5 20.5t13.5 31t-7 38z" />
    <glyph glyph-name="y" unicode="y" horiz-adv-x="473" 
d="M452 435q7 20 4 37t-12.5 29t-23.5 18.5t-30 6.5q-19 0 -36.5 -11t-25.5 -35l-92 -292l-55 160.5l-42 131.5q-7 23 -22.5 34.5t-34.5 11.5q-15 0 -29 -6t-23.5 -16.5t-13.5 -25.5t2 -34l29 -88.5t38 -106.5l43.5 -115l44.5 -113q-28 -45 -57.5 -58.5t-60.5 -15.5
t-45.5 -22t-14.5 -43q0 -26 19.5 -47t55.5 -18q48 4 85.5 21.5t68 49.5t55 78t46.5 108z" />
    <glyph glyph-name="z" unicode="z" horiz-adv-x="444" 
d="M425 462q0 31 -21 44.5t-42 13.5h-269q-24 0 -41 -17t-17 -42q0 -24 17 -41t41 -17h155l-215 -298q-13 -17 -13 -40q0 -15 6 -27.5t15 -20.5t19.5 -12.5t19.5 -4.5h286q24 0 41.5 17t17.5 42q0 24 -17.5 41t-41.5 17h-170l209 289q20 29 20 56z" />
    <glyph glyph-name="braceleft" unicode="{" horiz-adv-x="384" 
d="M329 -34q0 25 -16.5 42.5t-41.5 17.5h-3q-16 0 -29 11.5t-13 38.5q0 21 5.5 43t12.5 44.5t12.5 45.5t5.5 46q0 42 -19.5 68.5t-52.5 37.5v6q33 11 52.5 37.5t19.5 68.5q0 23 -5.5 46t-12.5 45.5t-12.5 44.5t-5.5 44q0 26 13 38t29 12h3q25 0 41.5 17t16.5 43q0 25 -18 43
t-45 18h-9q-31 0 -61 -9t-54 -29t-38.5 -51t-14.5 -74q0 -24 6 -50.5t12.5 -52.5l12.5 -49t6 -40q0 -32 -13.5 -44t-29.5 -12h-4q-21 0 -35 -14.5t-14 -34.5t14 -34t35 -14h4q16 0 29.5 -12.5t13.5 -44.5q0 -17 -6 -40l-12.5 -48.5t-12.5 -52t-6 -50.5q0 -44 14.5 -75
t38.5 -51t54 -29t61 -9h9q27 0 45 18t18 44z" />
    <glyph glyph-name="bar" unicode="|" horiz-adv-x="280" 
d="M209 -28v784q0 29 -20 49t-49 20t-49 -20t-20 -49v-784q0 -29 20 -49t49 -20t49 20t20 49z" />
    <glyph glyph-name="braceright" unicode="}" horiz-adv-x="384" 
d="M354 364q0 20 -14 34.5t-35 14.5h-5q-15 0 -28.5 12t-13.5 44q0 17 5.5 40t12.5 49t12.5 52.5t5.5 50.5q0 43 -14.5 74t-38 51t-53.5 29t-61 9h-9q-28 0 -45.5 -18t-17.5 -43q0 -26 16.5 -43t41.5 -17h3q15 0 28.5 -12t13.5 -38q0 -22 -5.5 -44t-12.5 -44.5t-12.5 -45.5
t-5.5 -46q0 -42 19.5 -68.5t52.5 -37.5v-6q-33 -11 -52.5 -37.5t-19.5 -68.5q0 -23 5.5 -46t12.5 -45.5t12.5 -44.5t5.5 -43q0 -27 -13.5 -38.5t-28.5 -11.5h-3q-25 0 -41.5 -17.5t-16.5 -42.5q0 -26 17.5 -44t45.5 -18h9q31 0 61 9t53.5 29t38 51t14.5 75q0 24 -5.5 50.5
t-12.5 52t-12.5 48.5t-5.5 40q0 32 13.5 44.5t28.5 12.5h5q21 0 35 14t14 34z" />
    <glyph glyph-name="asciitilde" unicode="~" horiz-adv-x="627" 
d="M570 305q0 29 -20 49t-49 20q-16 0 -26.5 -6l-21 -12.5t-23 -12.5t-31.5 -6q-23 0 -42.5 8t-40 18t-44.5 18t-55 8q-28 0 -56.5 -7t-51.5 -20.5t-37.5 -34t-14.5 -47.5q0 -29 20 -49t49 -20q16 0 26.5 6l21 12.5t22.5 12.5t31 6q23 0 43 -8l40.5 -17t44 -17t55.5 -8
q27 0 55.5 6.5t52 19.5t38 33.5t14.5 47.5z" />
    <glyph glyph-name="glyph128" 
 />
    <glyph glyph-name="Adieresis" unicode="&#xc4;" horiz-adv-x="579" 
d="M566 75q-36 158 -82.5 303.5t-104.5 288.5q-18 45 -42.5 58.5t-47.5 13.5t-46.5 -13.5t-42.5 -58.5q-57 -143 -104 -288.5t-83 -303.5q-5 -20 -0.5 -35.5t14.5 -26t24 -16.5t29 -6q21 0 39 13t25 41l12.5 54t13.5 53h235q7 -26 13.5 -53l12.5 -54q7 -29 25.5 -41.5
t40.5 -12.5q15 0 29 6t24.5 16.5t15 26t0.5 35.5zM372 274h-169l40.5 125.5t43.5 123.5q46 -122 85 -249zM505 897q0 35 -25 60t-60 25t-60 -25t-25 -60t25 -60t60 -25t60 25t25 60zM243 897q0 35 -25 60t-60 25t-60 -25t-25 -60t25 -60t60 -25t60 25t25 60z" />
    <glyph glyph-name="Aring" unicode="&#xc5;" horiz-adv-x="579" 
d="M566 75q-36 158 -82.5 303.5t-104.5 288.5q-18 45 -42.5 58.5t-47.5 13.5t-46.5 -13.5t-42.5 -58.5q-57 -143 -104 -288.5t-83 -303.5q-5 -20 -0.5 -35.5t14.5 -26t24 -16.5t29 -6q21 0 39 13t25 41l12.5 54t13.5 53h235q7 -26 13.5 -53l12.5 -54q7 -29 25.5 -41.5
t40.5 -12.5q15 0 29 6t24.5 16.5t15 26t0.5 35.5zM372 274h-169l40.5 125.5t43.5 123.5q46 -122 85 -249zM409 897q0 25 -9.5 46.5t-25.5 37.5t-37.5 25.5t-46.5 9.5t-46.5 -9.5t-37.5 -25.5t-25.5 -37.5t-9.5 -46.5t9.5 -46.5t25.5 -37.5t37.5 -25.5t46.5 -9.5t46.5 9.5
t37.5 25.5t25.5 37.5t9.5 46.5zM348 897q0 -24 -17 -41.5t-41 -17.5t-41 17.5t-17 41.5t17 41t41 17t41 -17t17 -41z" />
    <glyph glyph-name="Ccedilla" unicode="&#xc7;" horiz-adv-x="546" 
d="M516 640q0 28 -29 51q-27 23 -70 35t-84 12q-74 0 -125 -24t-83 -66.5t-46.5 -100.5t-14.5 -126v-113q0 -65 12 -119t38 -95t68 -67t101 -33l-4 -50q-2 -18 7.5 -25t30.5 -9t31.5 -8t10.5 -20t-13 -22t-45 -8q-46 0 -46 -25q0 -32 74 -32q57 0 88.5 22.5t31.5 60.5
q0 35 -24.5 57.5t-79.5 22.5v34q35 2 75 14.5t67 35.5q14 12 20.5 25.5t6.5 27.5q0 26 -17 42t-40 16q-11 0 -20.5 -3.5t-22.5 -11.5q-39 -22 -86 -22q-31 0 -55 10t-40 32.5t-24 59.5t-8 92v107q0 105 33 151t99 46q25 0 43.5 -5.5t32.5 -14.5q14 -8 23.5 -12t20.5 -3
q32 0 47.5 19t15.5 42z" />
    <glyph glyph-name="Eacute" unicode="&#xc9;" horiz-adv-x="567" 
d="M533 66q0 27 -19 46t-46 19h-253v170h217q26 0 45 18.5t19 44.5t-19 45t-45 19h-217v169h240q27 0 46 19.5t19 46.5t-19 46.5t-46 19.5h-312q-27 0 -46 -19.5t-19 -46.5v-597q0 -28 19 -47t46 -19h325q27 0 46 19t19 47zM385 929q11 17 6 38t-28 33q-24 13 -45 3.5
t-29 -27.5l-56 -113q-11 -20 -3 -37.5t26 -26.5q17 -8 34 -2.5t29 25.5z" />
    <glyph glyph-name="Ntilde" unicode="&#xd1;" horiz-adv-x="672" 
d="M595 54v620q0 26 -19 45t-45 19t-44.5 -19t-18.5 -45v-398l-256 426q-23 36 -67 36q-32 0 -49.5 -19t-17.5 -45v-620q0 -26 18.5 -44.5t44.5 -18.5t44.5 18.5t18.5 44.5v398l257 -427q21 -34 67 -34q30 0 48.5 18.5t18.5 44.5zM509 912q0 23 -14 40t-33 16
q-14 0 -21.5 -5t-14 -11t-14 -11t-20.5 -5q-17 0 -31 6.5t-28.5 14.5t-31 14.5t-38.5 6.5q-19 0 -38.5 -6t-35 -18t-25 -29.5t-9.5 -40.5t14 -40t33 -16q13 0 20.5 5t14 11t14 11t21.5 5q16 0 30 -6t28.5 -14t31.5 -14t39 -6q19 0 38.5 6t35 17t25 28.5t9.5 40.5z" />
    <glyph glyph-name="Odieresis" unicode="&#xd6;" horiz-adv-x="648" 
d="M585 261v207q0 51 -13.5 100t-44.5 86.5t-80.5 60.5t-122.5 23t-123 -23t-80.5 -60.5t-43.5 -86.5t-13 -100v-207q0 -51 13 -100t43.5 -87t80.5 -61t123 -23t122.5 23t80.5 61t44.5 87t13.5 100zM447 261q0 -32 -5.5 -58.5t-20 -46t-38 -30.5t-59.5 -11t-59.5 10.5
t-38 30t-20 46.5t-5.5 59v207q0 32 5.5 58.5t20 46t38 30t59.5 10.5t59.5 -11t38 -30t20 -46t5.5 -58v-207zM536 897q0 35 -25 60t-60 25t-60 -25t-25 -60t25 -60t60 -25t60 25t25 60zM274 897q0 35 -25 60t-60 25t-60 -25t-25 -60t25 -60t60 -25t60 25t25 60z" />
    <glyph glyph-name="Udieresis" unicode="&#xdc;" horiz-adv-x="649" 
d="M585 237v432q0 29 -20 49t-49 20t-49 -20t-20 -49v-426q0 -23 -5 -46.5t-19 -42.5t-38 -31t-61 -12q-38 0 -62 12t-37.5 31t-19 42.5t-5.5 46.5v426q0 29 -19.5 49t-48.5 20t-48.5 -20t-19.5 -49v-432q0 -51 15.5 -95.5t47.5 -78t81 -53t116 -19.5t116 19.5t81.5 53
t48 78t15.5 95.5zM539 897q0 35 -25 60t-60 25t-60 -25t-25 -60t25 -60t60 -25t60 25t25 60zM277 897q0 35 -25 60t-60 25t-60 -25t-25 -60t25 -60t60 -25t60 25t25 60z" />
    <glyph glyph-name="aacute" unicode="&#xe1;" horiz-adv-x="535" 
d="M502 49q0 14 -5.5 23.5t-13.5 16.5q-11 10 -18.5 20t-7.5 36v167q0 56 -11 96.5t-35 66.5t-62 38.5t-92 12.5q-40 0 -83.5 -8t-75.5 -29q-23 -15 -26 -36t7.5 -37.5t31 -24t45.5 5.5q17 9 37.5 15.5t52.5 6.5q46 0 61 -23.5t15 -67.5v-19h-89q-97 0 -147.5 -40.5
t-50.5 -111.5v-7q0 -71 44.5 -113.5t135.5 -42.5q33 0 70.5 8.5t66.5 33.5q10 -14 20 -21q10 -8 26 -14.5t36 -6.5q31 0 49.5 13t18.5 42zM322 168q0 -40 -21.5 -59t-56.5 -19q-39 0 -57 15t-18 43v7q0 25 17.5 41t62.5 16h73v-44zM339 728q11 17 6 38t-28 33
q-24 13 -45 3.5t-29 -27.5l-56 -113q-11 -20 -3 -37.5t26 -26.5q17 -8 34 -2.5t29 25.5z" />
    <glyph glyph-name="agrave" unicode="&#xe0;" horiz-adv-x="535" 
d="M502 49q0 14 -5.5 23.5t-13.5 16.5q-11 10 -18.5 20t-7.5 36v167q0 56 -11 96.5t-35 66.5t-62 38.5t-92 12.5q-40 0 -83.5 -8t-75.5 -29q-23 -15 -26 -36t7.5 -37.5t31 -24t45.5 5.5q17 9 37.5 15.5t52.5 6.5q46 0 61 -23.5t15 -67.5v-19h-89q-97 0 -147.5 -40.5
t-50.5 -111.5v-7q0 -71 44.5 -113.5t135.5 -42.5q33 0 70.5 8.5t66.5 33.5q10 -14 20 -21q10 -8 26 -14.5t36 -6.5q31 0 49.5 13t18.5 42zM322 168q0 -40 -21.5 -59t-56.5 -19q-39 0 -57 15t-18 43v7q0 25 17.5 41t62.5 16h73v-44zM332 662l-56 113q-8 18 -29 27.5t-45 -3.5
q-23 -12 -28 -33t6 -38l66 -107q12 -20 29 -25.5t34 2.5q18 9 26 26.5t-3 37.5z" />
    <glyph glyph-name="acircumflex" unicode="&#xe2;" horiz-adv-x="535" 
d="M502 49q0 14 -5.5 23.5t-13.5 16.5q-11 10 -18.5 20t-7.5 36v167q0 56 -11 96.5t-35 66.5t-62 38.5t-92 12.5q-40 0 -83.5 -8t-75.5 -29q-23 -15 -26 -36t7.5 -37.5t31 -24t45.5 5.5q17 9 37.5 15.5t52.5 6.5q46 0 61 -23.5t15 -67.5v-19h-89q-97 0 -147.5 -40.5
t-50.5 -111.5v-7q0 -71 44.5 -113.5t135.5 -42.5q33 0 70.5 8.5t66.5 33.5q10 -14 20 -21q10 -8 26 -14.5t36 -6.5q31 0 49.5 13t18.5 42zM322 168q0 -40 -21.5 -59t-56.5 -19q-39 0 -57 15t-18 43v7q0 25 17.5 41t62.5 16h73v-44zM410 618q13 16 11.5 35t-19.5 35l-107 94
q-8 6 -17.5 10t-20.5 4q-21 1 -38 -14l-107 -91q-18 -16 -19.5 -35t11.5 -36t31.5 -19.5t37.5 11.5l84 63l84 -65q19 -14 37.5 -11.5t31.5 19.5z" />
    <glyph glyph-name="adieresis" unicode="&#xe4;" horiz-adv-x="535" 
d="M502 49q0 14 -5.5 23.5t-13.5 16.5q-11 10 -18.5 20t-7.5 36v167q0 56 -11 96.5t-35 66.5t-62 38.5t-92 12.5q-40 0 -83.5 -8t-75.5 -29q-23 -15 -26 -36t7.5 -37.5t31 -24t45.5 5.5q17 9 37.5 15.5t52.5 6.5q46 0 61 -23.5t15 -67.5v-19h-89q-97 0 -147.5 -40.5
t-50.5 -111.5v-7q0 -71 44.5 -113.5t135.5 -42.5q33 0 70.5 8.5t66.5 33.5q10 -14 20 -21q10 -8 26 -14.5t36 -6.5q31 0 49.5 13t18.5 42zM322 168q0 -40 -21.5 -59t-56.5 -19q-39 0 -57 15t-18 43v7q0 25 17.5 41t62.5 16h73v-44zM479 696q0 35 -25 60t-60 25t-60 -25
t-25 -60t25 -60t60 -25t60 25t25 60zM217 696q0 35 -25 60t-60 25t-60 -25t-25 -60t25 -60t60 -25t60 25t25 60z" />
    <glyph glyph-name="atilde" unicode="&#xe3;" horiz-adv-x="535" 
d="M502 49q0 14 -5.5 23.5t-13.5 16.5q-11 10 -18.5 20t-7.5 36v167q0 56 -11 96.5t-35 66.5t-62 38.5t-92 12.5q-40 0 -83.5 -8t-75.5 -29q-23 -15 -26 -36t7.5 -37.5t31 -24t45.5 5.5q17 9 37.5 15.5t52.5 6.5q46 0 61 -23.5t15 -67.5v-19h-89q-97 0 -147.5 -40.5
t-50.5 -111.5v-7q0 -71 44.5 -113.5t135.5 -42.5q33 0 70.5 8.5t66.5 33.5q10 -14 20 -21q10 -8 26 -14.5t36 -6.5q31 0 49.5 13t18.5 42zM322 168q0 -40 -21.5 -59t-56.5 -19q-39 0 -57 15t-18 43v7q0 25 17.5 41t62.5 16h73v-44zM431 711q0 23 -14 40t-33 16
q-14 0 -21.5 -5t-14 -11t-14 -11t-20.5 -5q-17 0 -31 6.5t-28.5 14.5t-31 14.5t-38.5 6.5q-19 0 -38.5 -6t-35 -18t-25 -29.5t-9.5 -40.5t14 -40t33 -16q13 0 20.5 5t14 11t14 11t21.5 5q16 0 30 -6t28.5 -14t31.5 -14t39 -6q19 0 38.5 6t35 17t25 28.5t9.5 40.5z" />
    <glyph glyph-name="aring" unicode="&#xe5;" horiz-adv-x="535" 
d="M502 49q0 14 -5.5 23.5t-13.5 16.5q-11 10 -18.5 20t-7.5 36v167q0 56 -11 96.5t-35 66.5t-62 38.5t-92 12.5q-40 0 -83.5 -8t-75.5 -29q-23 -15 -26 -36t7.5 -37.5t31 -24t45.5 5.5q17 9 37.5 15.5t52.5 6.5q46 0 61 -23.5t15 -67.5v-19h-89q-97 0 -147.5 -40.5
t-50.5 -111.5v-7q0 -71 44.5 -113.5t135.5 -42.5q33 0 70.5 8.5t66.5 33.5q10 -14 20 -21q10 -8 26 -14.5t36 -6.5q31 0 49.5 13t18.5 42zM322 168q0 -40 -21.5 -59t-56.5 -19q-39 0 -57 15t-18 43v7q0 25 17.5 41t62.5 16h73v-44zM372 696q0 25 -9.5 46.5t-25.5 37.5
t-37.5 25.5t-46.5 9.5t-46.5 -9.5t-37.5 -25.5t-25.5 -37.5t-9.5 -46.5t9.5 -46.5t25.5 -37.5t37.5 -25.5t46.5 -9.5t46.5 9.5t37.5 25.5t25.5 37.5t9.5 46.5zM311 696q0 -24 -17 -41.5t-41 -17.5t-41 17.5t-17 41.5t17 41t41 17t41 -17t17 -41z" />
    <glyph glyph-name="ccedilla" unicode="&#xe7;" horiz-adv-x="449" 
d="M418 428q9 24 0 41t-26 28q-29 17 -64.5 23t-66.5 6q-52 0 -91.5 -18.5t-65.5 -50.5t-39.5 -75t-13.5 -91v-70q0 -44 9.5 -82.5t30 -68t52.5 -48.5t77 -25l-4 -49q-2 -18 7.5 -25t29.5 -9q43 -4 43 -27q0 -14 -13 -22.5t-45 -8.5q-46 0 -46 -25q0 -32 74 -32
q57 0 88.5 22.5t31.5 60.5q0 35 -25 57.5t-79 22.5v33q27 2 54.5 8t53.5 20q17 9 26 26t1 42q-7 22 -27 30.5t-40 -0.5q-24 -11 -43.5 -14t-37.5 -3q-42 0 -62.5 29.5t-20.5 80.5v92q0 52 23 81t65 29q25 0 42 -4.5t34 -12.5q20 -9 40 -1t28 30z" />
    <glyph glyph-name="eacute" unicode="&#xe9;" horiz-adv-x="515" 
d="M471 266v43q0 43 -11.5 82.5t-36 69.5t-64.5 47.5t-97 17.5q-55 0 -94.5 -18t-65.5 -48t-38.5 -70t-12.5 -84v-93q0 -44 11 -83.5t36 -69.5t65 -48t98 -18q36 0 75.5 6.5t81.5 25.5q19 8 27 25.5t1 40.5q-6 22 -25.5 32t-39.5 2q-26 -11 -50.5 -16.5t-61.5 -5.5
q-42 0 -62.5 25t-20.5 70v19h239q19 0 32.5 14t13.5 34zM341 332v-13h-155v13q0 43 19.5 66t59.5 23t58 -23t18 -66zM341 728q11 17 6 38t-28 33q-24 13 -45 3.5t-29 -27.5l-56 -113q-11 -20 -3 -37.5t26 -26.5q17 -8 34 -2.5t29 25.5z" />
    <glyph glyph-name="egrave" unicode="&#xe8;" horiz-adv-x="515" 
d="M471 266v43q0 43 -11.5 82.5t-36 69.5t-64.5 47.5t-97 17.5q-55 0 -94.5 -18t-65.5 -48t-38.5 -70t-12.5 -84v-93q0 -44 11 -83.5t36 -69.5t65 -48t98 -18q36 0 75.5 6.5t81.5 25.5q19 8 27 25.5t1 40.5q-6 22 -25.5 32t-39.5 2q-26 -11 -50.5 -16.5t-61.5 -5.5
q-42 0 -62.5 25t-20.5 70v19h239q19 0 32.5 14t13.5 34zM341 332v-13h-155v13q0 43 19.5 66t59.5 23t58 -23t18 -66zM343 662l-56 113q-8 18 -29 27.5t-45 -3.5q-23 -12 -28 -33t6 -38l66 -107q12 -20 29 -25.5t34 2.5q18 9 26 26.5t-3 37.5z" />
    <glyph glyph-name="ecircumflex" unicode="&#xea;" horiz-adv-x="515" 
d="M471 266v43q0 43 -11.5 82.5t-36 69.5t-64.5 47.5t-97 17.5q-55 0 -94.5 -18t-65.5 -48t-38.5 -70t-12.5 -84v-93q0 -44 11 -83.5t36 -69.5t65 -48t98 -18q36 0 75.5 6.5t81.5 25.5q19 8 27 25.5t1 40.5q-6 22 -25.5 32t-39.5 2q-26 -11 -50.5 -16.5t-61.5 -5.5
q-42 0 -62.5 25t-20.5 70v19h239q19 0 32.5 14t13.5 34zM341 332v-13h-155v13q0 43 19.5 66t59.5 23t58 -23t18 -66zM411 618q13 16 11.5 35t-19.5 35l-107 94q-8 6 -17.5 10t-20.5 4q-21 1 -38 -14l-107 -91q-18 -16 -19.5 -35t11.5 -36t31.5 -19.5t37.5 11.5l84 63l84 -65
q19 -14 37.5 -11.5t31.5 19.5z" />
    <glyph glyph-name="edieresis" unicode="&#xeb;" horiz-adv-x="515" 
d="M471 266v43q0 43 -11.5 82.5t-36 69.5t-64.5 47.5t-97 17.5q-55 0 -94.5 -18t-65.5 -48t-38.5 -70t-12.5 -84v-93q0 -44 11 -83.5t36 -69.5t65 -48t98 -18q36 0 75.5 6.5t81.5 25.5q19 8 27 25.5t1 40.5q-6 22 -25.5 32t-39.5 2q-26 -11 -50.5 -16.5t-61.5 -5.5
q-42 0 -62.5 25t-20.5 70v19h239q19 0 32.5 14t13.5 34zM341 332v-13h-155v13q0 43 19.5 66t59.5 23t58 -23t18 -66zM476 696q0 35 -25 60t-60 25t-60 -25t-25 -60t25 -60t60 -25t60 25t25 60zM214 696q0 35 -25 60t-60 25t-60 -25t-25 -60t25 -60t60 -25t60 25t25 60z" />
    <glyph glyph-name="iacute" unicode="&#xed;" horiz-adv-x="268" 
d="M201 61v397q0 28 -19.5 48t-47.5 20q-29 0 -48.5 -20t-19.5 -48v-397q0 -28 19.5 -47.5t48.5 -19.5q28 0 47.5 19.5t19.5 47.5zM210 728q11 17 6 38t-28 33q-24 13 -45 3.5t-29 -27.5l-56 -113q-11 -20 -3 -37.5t26 -26.5q17 -8 34 -2.5t29 25.5z" />
    <glyph glyph-name="igrave" unicode="&#xec;" horiz-adv-x="268" 
d="M201 61v397q0 28 -19.5 48t-47.5 20q-29 0 -48.5 -20t-19.5 -48v-397q0 -28 19.5 -47.5t48.5 -19.5q28 0 47.5 19.5t19.5 47.5zM212 662l-56 113q-8 18 -29 27.5t-45 -3.5q-23 -12 -28 -33t6 -38l66 -107q12 -20 29 -25.5t34 2.5q18 9 26 26.5t-3 37.5z" />
    <glyph glyph-name="icircumflex" unicode="&#xee;" horiz-adv-x="268" 
d="M201 61v397q0 28 -19.5 48t-47.5 20q-29 0 -48.5 -20t-19.5 -48v-397q0 -28 19.5 -47.5t48.5 -19.5q28 0 47.5 19.5t19.5 47.5zM286 618q13 16 11.5 35t-19.5 35l-107 94q-8 6 -17.5 10t-20.5 4q-21 1 -38 -14l-107 -91q-18 -16 -19.5 -35t11.5 -36t31.5 -19.5t37.5 11.5
l84 63l84 -65q19 -14 37.5 -11.5t31.5 19.5z" />
    <glyph glyph-name="idieresis" unicode="&#xef;" horiz-adv-x="268" 
d="M201 61v397q0 28 -19.5 48t-47.5 20q-29 0 -48.5 -20t-19.5 -48v-397q0 -28 19.5 -47.5t48.5 -19.5q28 0 47.5 19.5t19.5 47.5zM352 696q0 35 -25 60t-60 25t-60 -25t-25 -60t25 -60t60 -25t60 25t25 60zM90 696q0 35 -25 60t-60 25t-60 -25t-25 -60t25 -60t60 -25t60 25
t25 60z" />
    <glyph glyph-name="ntilde" unicode="&#xf1;" horiz-adv-x="570" 
d="M504 61v276q0 42 -8.5 77t-28.5 59.5t-52 38.5t-80 14q-49 0 -86 -14t-64 -39q-10 15 -23 25q-14 11 -30.5 16t-32.5 5q-29 0 -48 -13t-19 -42q0 -14 5 -23.5t13 -15.5q12 -11 21 -21t9 -36v-307q0 -28 19.5 -47.5t48.5 -19.5q28 0 47.5 19.5t19.5 47.5v297q14 19 35 30
t48 11q22 0 36 -6.5t21.5 -17t10.5 -25t3 -29.5v-260q0 -28 19.5 -47.5t47.5 -19.5t48 19.5t20 47.5zM465 711q0 23 -14 40t-33 16q-14 0 -21.5 -5t-14 -11t-14 -11t-20.5 -5q-17 0 -31 6.5t-28.5 14.5t-31 14.5t-38.5 6.5q-19 0 -38.5 -6t-35 -18t-25 -29.5t-9.5 -40.5
t14 -40t33 -16q13 0 20.5 5t14 11t14 11t21.5 5q16 0 30 -6t28.5 -14t31.5 -14t39 -6q19 0 38.5 6t35 17t25 28.5t9.5 40.5z" />
    <glyph glyph-name="oacute" unicode="&#xf3;" horiz-adv-x="533" 
d="M481 207v106q0 43 -12.5 82t-39 68t-67 46t-96.5 17t-96.5 -17t-67 -46t-39 -68t-12.5 -82v-106q0 -44 12.5 -82.5t39 -67.5t67 -46t96.5 -17t96.5 17t67 46t39 67.5t12.5 82.5zM346 207q0 -45 -19 -68.5t-61 -23.5q-41 0 -60.5 23.5t-19.5 68.5v105q0 45 19.5 68.5
t60.5 23.5q42 0 61 -23.5t19 -68.5v-105zM340 728q11 17 6 38t-28 33q-24 13 -45 3.5t-29 -27.5l-56 -113q-11 -20 -3 -37.5t26 -26.5q17 -8 34 -2.5t29 25.5z" />
    <glyph glyph-name="ograve" unicode="&#xf2;" horiz-adv-x="533" 
d="M481 207v106q0 43 -12.5 82t-39 68t-67 46t-96.5 17t-96.5 -17t-67 -46t-39 -68t-12.5 -82v-106q0 -44 12.5 -82.5t39 -67.5t67 -46t96.5 -17t96.5 17t67 46t39 67.5t12.5 82.5zM346 207q0 -45 -19 -68.5t-61 -23.5q-41 0 -60.5 23.5t-19.5 68.5v105q0 45 19.5 68.5
t60.5 23.5q42 0 61 -23.5t19 -68.5v-105zM349 662l-56 113q-8 18 -29 27.5t-45 -3.5q-23 -12 -28 -33t6 -38l66 -107q12 -20 29 -25.5t34 2.5q18 9 26 26.5t-3 37.5z" />
    <glyph glyph-name="ocircumflex" unicode="&#xf4;" horiz-adv-x="533" 
d="M481 207v106q0 43 -12.5 82t-39 68t-67 46t-96.5 17t-96.5 -17t-67 -46t-39 -68t-12.5 -82v-106q0 -44 12.5 -82.5t39 -67.5t67 -46t96.5 -17t96.5 17t67 46t39 67.5t12.5 82.5zM346 207q0 -45 -19 -68.5t-61 -23.5q-41 0 -60.5 23.5t-19.5 68.5v105q0 45 19.5 68.5
t60.5 23.5q42 0 61 -23.5t19 -68.5v-105zM418 618q13 16 11.5 35t-19.5 35l-107 94q-8 6 -17.5 10t-20.5 4q-21 1 -38 -14l-107 -91q-18 -16 -19.5 -35t11.5 -36t31.5 -19.5t37.5 11.5l84 63l84 -65q19 -14 37.5 -11.5t31.5 19.5z" />
    <glyph glyph-name="odieresis" unicode="&#xf6;" horiz-adv-x="533" 
d="M481 207v106q0 43 -12.5 82t-39 68t-67 46t-96.5 17t-96.5 -17t-67 -46t-39 -68t-12.5 -82v-106q0 -44 12.5 -82.5t39 -67.5t67 -46t96.5 -17t96.5 17t67 46t39 67.5t12.5 82.5zM346 207q0 -45 -19 -68.5t-61 -23.5q-41 0 -60.5 23.5t-19.5 68.5v105q0 45 19.5 68.5
t60.5 23.5q42 0 61 -23.5t19 -68.5v-105zM483 696q0 35 -25 60t-60 25t-60 -25t-25 -60t25 -60t60 -25t60 25t25 60zM221 696q0 35 -25 60t-60 25t-60 -25t-25 -60t25 -60t60 -25t60 25t25 60z" />
    <glyph glyph-name="otilde" unicode="&#xf5;" horiz-adv-x="533" 
d="M481 207v106q0 43 -12.5 82t-39 68t-67 46t-96.5 17t-96.5 -17t-67 -46t-39 -68t-12.5 -82v-106q0 -44 12.5 -82.5t39 -67.5t67 -46t96.5 -17t96.5 17t67 46t39 67.5t12.5 82.5zM346 207q0 -45 -19 -68.5t-61 -23.5q-41 0 -60.5 23.5t-19.5 68.5v105q0 45 19.5 68.5
t60.5 23.5q42 0 61 -23.5t19 -68.5v-105zM446 711q0 23 -14 40t-33 16q-14 0 -21.5 -5t-14 -11t-14 -11t-20.5 -5q-17 0 -31 6.5t-28.5 14.5t-31 14.5t-38.5 6.5q-19 0 -38.5 -6t-35 -18t-25 -29.5t-9.5 -40.5t14 -40t33 -16q13 0 20.5 5t14 11t14 11t21.5 5q16 0 30 -6
t28.5 -14t31.5 -14t39 -6q19 0 38.5 6t35 17t25 28.5t9.5 40.5z" />
    <glyph glyph-name="uacute" unicode="&#xfa;" horiz-adv-x="571" 
d="M540 49q0 14 -5.5 24t-13.5 16q-12 10 -21 20t-9 36v313q0 28 -19.5 48t-47.5 20t-48 -20t-20 -48v-296q-13 -19 -34 -30t-49 -11q-22 0 -35.5 5.5t-21 15.5t-10.5 24.5t-3 31.5v260q0 28 -20 48t-48 20t-47.5 -20t-19.5 -48v-277q0 -42 9.5 -76t29.5 -59t52 -38.5
t77 -13.5q48 0 84.5 13.5t62.5 37.5q11 -18 26 -29q14 -11 30.5 -16.5t32.5 -5.5q29 0 48.5 13t19.5 42zM355 728q11 17 6 38t-28 33q-24 13 -45 3.5t-29 -27.5l-56 -113q-11 -20 -3 -37.5t26 -26.5q17 -8 34 -2.5t29 25.5z" />
    <glyph glyph-name="ugrave" unicode="&#xf9;" horiz-adv-x="571" 
d="M540 49q0 14 -5.5 24t-13.5 16q-12 10 -21 20t-9 36v313q0 28 -19.5 48t-47.5 20t-48 -20t-20 -48v-296q-13 -19 -34 -30t-49 -11q-22 0 -35.5 5.5t-21 15.5t-10.5 24.5t-3 31.5v260q0 28 -20 48t-48 20t-47.5 -20t-19.5 -48v-277q0 -42 9.5 -76t29.5 -59t52 -38.5
t77 -13.5q48 0 84.5 13.5t62.5 37.5q11 -18 26 -29q14 -11 30.5 -16.5t32.5 -5.5q29 0 48.5 13t19.5 42zM356 662l-56 113q-8 18 -29 27.5t-45 -3.5q-23 -12 -28 -33t6 -38l66 -107q12 -20 29 -25.5t34 2.5q18 9 26 26.5t-3 37.5z" />
    <glyph glyph-name="ucircumflex" unicode="&#xfb;" horiz-adv-x="571" 
d="M540 49q0 14 -5.5 24t-13.5 16q-12 10 -21 20t-9 36v313q0 28 -19.5 48t-47.5 20t-48 -20t-20 -48v-296q-13 -19 -34 -30t-49 -11q-22 0 -35.5 5.5t-21 15.5t-10.5 24.5t-3 31.5v260q0 28 -20 48t-48 20t-47.5 -20t-19.5 -48v-277q0 -42 9.5 -76t29.5 -59t52 -38.5
t77 -13.5q48 0 84.5 13.5t62.5 37.5q11 -18 26 -29q14 -11 30.5 -16.5t32.5 -5.5q29 0 48.5 13t19.5 42zM432 618q13 16 11.5 35t-19.5 35l-107 94q-8 6 -17.5 10t-20.5 4q-21 1 -38 -14l-107 -91q-18 -16 -19.5 -35t11.5 -36t31.5 -19.5t37.5 11.5l84 63l84 -65
q19 -14 37.5 -11.5t31.5 19.5z" />
    <glyph glyph-name="udieresis" unicode="&#xfc;" horiz-adv-x="571" 
d="M540 49q0 14 -5.5 24t-13.5 16q-12 10 -21 20t-9 36v313q0 28 -19.5 48t-47.5 20t-48 -20t-20 -48v-296q-13 -19 -34 -30t-49 -11q-22 0 -35.5 5.5t-21 15.5t-10.5 24.5t-3 31.5v260q0 28 -20 48t-48 20t-47.5 -20t-19.5 -48v-277q0 -42 9.5 -76t29.5 -59t52 -38.5
t77 -13.5q48 0 84.5 13.5t62.5 37.5q11 -18 26 -29q14 -11 30.5 -16.5t32.5 -5.5q29 0 48.5 13t19.5 42zM499 696q0 35 -25 60t-60 25t-60 -25t-25 -60t25 -60t60 -25t60 25t25 60zM237 696q0 35 -25 60t-60 25t-60 -25t-25 -60t25 -60t60 -25t60 25t25 60z" />
    <glyph glyph-name="dagger" unicode="&#x2020;" horiz-adv-x="575" 
d="M530 470q0 24 -17.5 41.5t-42.5 17.5h-114v140q0 29 -20 49t-49 20t-49 -20t-20 -49v-140h-114q-25 0 -42 -17.5t-17 -41.5q0 -25 17 -42.5t42 -17.5h114v-350q0 -29 20 -49t49 -20t49 20t20 49v350h114q25 0 42.5 17.5t17.5 42.5z" />
    <glyph glyph-name="degree" unicode="&#xb0;" horiz-adv-x="428" 
d="M396 556q0 38 -14 71t-39 58t-58 39t-71 14t-71 -14t-58 -39t-39 -58t-14 -71t14 -70.5t39 -57.5t58 -39t71 -14t71 14t58 39t39 57.5t14 70.5zM298 556q0 -35 -24.5 -59.5t-59.5 -24.5q-18 0 -33 6.5t-26.5 18t-18 27t-6.5 32.5q0 35 24.5 60t59.5 25q17 0 32.5 -6.5
t27 -18t18 -27t6.5 -33.5z" />
    <glyph glyph-name="cent" unicode="&#xa2;" horiz-adv-x="449" 
d="M418 428q9 24 0 41t-26 28q-16 9 -33.5 14.5t-36.5 8.5v41q0 22 -15 37t-37 15q-23 0 -38 -15t-15 -37v-40q-41 -8 -72 -28.5t-52 -51t-31.5 -69t-10.5 -81.5v-70q0 -44 9.5 -82t29.5 -67.5t51.5 -49t75.5 -25.5v-38q0 -23 15 -38t38 -15q22 0 37 15t15 38v41q37 6 68 22
q17 10 26 27t1 42q-7 22 -27 30.5t-40 -0.5q-24 -11 -43.5 -14t-37.5 -3q-42 0 -62.5 29.5t-20.5 80.5v92q0 52 23 80.5t65 28.5q25 0 42 -4t34 -12q20 -9 40 -1t28 30z" />
    <glyph glyph-name="sterling" unicode="&#xa3;" horiz-adv-x="625" 
d="M575 65q0 27 -19 46t-46 19h-244q23 23 35.5 52.5t12.5 68.5q0 7 -2 15t-4 14h102q23 0 39.5 16t16.5 39t-16.5 39.5t-39.5 16.5h-127q-10 30 -18 59.5t-8 58.5q0 17 5.5 34t19.5 31t38 23t60 9q23 0 41.5 -3.5t33.5 -7.5t23 -5.5t16 -1.5q27 0 44 18.5t17 46.5
q0 24 -13.5 39t-39.5 23q-35 11 -67.5 15.5t-67.5 4.5q-65 0 -111.5 -18.5t-77 -49.5t-45 -71t-14.5 -83q0 -33 7.5 -63t17.5 -59h-16q-23 0 -39.5 -16.5t-16.5 -39.5t16.5 -39t39.5 -16h42q2 -6 4 -14t2 -15q0 -33 -6 -53.5t-14 -32.5t-16.5 -18t-13.5 -9
q-35 -9 -55.5 -26.5t-20.5 -46.5q0 -27 19 -46t46 -19h395q27 0 46 19t19 46z" />
    <glyph glyph-name="section" unicode="&#xa7;" horiz-adv-x="542" 
d="M504 269q0 92 -74 138q-14 9 -33 16.5t-40 14.5t-43 12.5t-41 11.5q-44 14 -64 28.5t-20 45.5q0 38 28 57t76 19q23 0 40 -3t30 -7q17 -5 29 -10t25 -5q26 0 41 17.5t15 40.5q0 18 -11.5 33.5t-34.5 23.5q-32 11 -69 16.5t-73 5.5q-44 0 -83.5 -12.5t-69.5 -38t-48 -63.5
t-18 -89q0 -35 10 -61t27 -45q-27 -23 -43.5 -57t-16.5 -79q0 -48 19 -82t56 -57q28 -17 72.5 -30l84.5 -25q43 -13 63 -27.5t20 -45.5q0 -39 -28 -57.5t-76 -18.5q-23 0 -40 3t-30 7q-17 5 -28.5 9.5t-25.5 4.5q-26 0 -41 -17.5t-15 -40.5q0 -18 11.5 -33.5t34.5 -23.5
q32 -11 69 -16t73 -5q44 0 84 12.5t70 38t48 63.5t18 89q0 35 -10 60.5t-27 44.5q26 24 42.5 57.5t16.5 79.5zM380 256q0 -44 -35 -67q-20 7 -39.5 12.5l-36.5 10.5q-53 16 -77.5 31.5t-24.5 47.5q0 44 35 68q20 -8 39.5 -13.5l36.5 -10.5q53 -16 77.5 -31.5t24.5 -47.5z
" />
    <glyph glyph-name="bullet" unicode="&#x2022;" horiz-adv-x="499" 
d="M399 335q0 36 -13.5 67t-37 54.5t-54.5 37t-67 13.5t-67 -13.5t-54.5 -37t-37 -54.5t-13.5 -67t13.5 -67t37 -54.5t54.5 -37t67 -13.5t67 13.5t54.5 37t37 54.5t13.5 67z" />
    <glyph glyph-name="paragraph" unicode="&#xb6;" horiz-adv-x="729" 
d="M688 674q0 24 -17 41.5t-42 17.5h-366q-40 0 -75 -15t-61.5 -40.5t-41.5 -60.5t-15 -74q0 -38 14 -72t38 -59.5t56.5 -41t70.5 -17.5v-446q0 -29 20 -49t49 -20t49 20t20 49v708h82v-708q0 -29 20 -49t49 -20t49 20t20 49v708h22q25 0 42 17t17 42z" />
    <glyph glyph-name="germandbls" unicode="&#xdf;" horiz-adv-x="592" 
d="M541 195q0 73 -33.5 122.5t-114.5 70.5q104 36 104 155q0 41 -14 75t-40 59t-63 38.5t-83 13.5q-51 0 -93.5 -15.5t-73 -47t-47.5 -79.5t-17 -112v-518q0 -28 19.5 -47.5t48.5 -19.5q28 0 47.5 19.5t19.5 47.5v518q0 60 20 96t71 36q13 0 27 -5t25.5 -15t18.5 -26t7 -37
q0 -27 -8 -45t-20 -29t-26.5 -15.5t-27.5 -4.5h-11q-22 0 -36.5 -15t-14.5 -36t14.5 -36t36.5 -15h10q21 0 42 -5.5t38 -18t28 -34.5t11 -55q0 -29 -8 -48.5t-22.5 -31.5t-35 -17t-45.5 -5h-13q-24 0 -41 -17t-17 -42q0 -24 17 -41t41 -17h25q43 0 85 11.5t75 35.5
t53.5 61.5t20.5 90.5z" />
    <glyph glyph-name="registered" unicode="&#xae;" horiz-adv-x="874" 
d="M810 364q0 77 -29.5 145t-80 119t-118.5 80.5t-145 29.5t-145 -29.5t-118.5 -80.5t-80 -119t-29.5 -145t29.5 -145t80 -118.5t118.5 -80t145 -29.5t145 29.5t118.5 80t80 118.5t29.5 145zM721 364q0 -59 -22.5 -111t-61 -90.5t-90 -61t-110.5 -22.5t-110.5 22.5t-90 61
t-61 90.5t-22.5 111t22.5 111t61 90.5t90 61t110.5 22.5t110.5 -22.5t90 -61t61 -90.5t22.5 -111zM578 423v31q0 21 -6.5 40.5t-21.5 34.5t-39 24t-59 9h-105q-19 0 -32 -13t-13 -31v-307q0 -19 13 -32t32 -13t32 13t13 32v105h38l56 -121q13 -29 42 -29q18 0 31 13t13 32
q0 11 -4 19l-51 100q30 12 45.5 36.5t15.5 56.5zM489 429q0 -14 -10.5 -25t-36.5 -11h-50v90h56q23 0 32 -11t9 -25v-18z" />
    <glyph glyph-name="copyright" unicode="&#xa9;" horiz-adv-x="874" 
d="M810 364q0 77 -29.5 145t-80 119t-118.5 80.5t-145 29.5t-145 -29.5t-118.5 -80.5t-80 -119t-29.5 -145t29.5 -145t80 -118.5t118.5 -80t145 -29.5t145 29.5t118.5 80t80 118.5t29.5 145zM721 364q0 -59 -22.5 -111t-61 -90.5t-90 -61t-110.5 -22.5t-110.5 22.5t-90 61
t-61 90.5t-22.5 111t22.5 111t61 90.5t90 61t110.5 22.5t110.5 -22.5t90 -61t61 -90.5t22.5 -111zM556 218q0 17 -11 30t-29 13q-5 0 -8.5 -0.5t-8.5 -2.5q-25 -11 -59 -11q-35 0 -55 21t-20 73v48q0 46 22 69.5t54 23.5q17 0 30 -2t24 -7q9 -5 18 -5q19 0 30 13.5t11 30.5
q0 11 -6 21t-20 16q-23 11 -45.5 14t-45.5 3q-39 0 -69.5 -14.5t-50.5 -39t-30.5 -56.5t-10.5 -67v-48q0 -79 39.5 -129t120.5 -50q47 0 92 18q15 6 21.5 16t6.5 22z" />
    <glyph glyph-name="acute" unicode="&#xb4;" horiz-adv-x="530" 
d="M340 728q11 17 6 38t-28 33q-24 13 -45 3.5t-29 -27.5l-56 -113q-11 -20 -3 -37.5t26 -26.5q17 -8 34 -2.5t29 25.5z" />
    <glyph glyph-name="dieresis" unicode="&#xa8;" horiz-adv-x="530" 
d="M481 696q0 35 -25 60t-60 25t-60 -25t-25 -60t25 -60t60 -25t60 25t25 60zM219 696q0 35 -25 60t-60 25t-60 -25t-25 -60t25 -60t60 -25t60 25t25 60z" />
    <glyph glyph-name="notequal" unicode="&#x2260;" horiz-adv-x="615" 
d="M534 173q0 26 -18 44.5t-44 18.5h-158l51 113h107q26 0 44 18t18 44t-18 44.5t-44 18.5h-51l30 68q5 11 0.5 22.5t-15.5 16.5t-22 0.5t-16 -15.5l-42 -92h-213q-26 0 -44 -18.5t-18 -44.5t18 -44t44 -18h158l-51 -113h-107q-26 0 -44 -18.5t-18 -44.5t18 -44t44 -18h52
l-31 -68q-5 -11 -0.5 -22.5t15.5 -16.5t22.5 -0.5t16.5 15.5l41 92h213q26 0 44 18t18 44z" />
    <glyph glyph-name="AE" unicode="&#xc6;" horiz-adv-x="892" 
d="M858 66q0 27 -19 46t-46 19h-230v170h194q26 0 45 18.5t19 44.5t-19 45t-45 19h-194v169h217q27 0 46 19.5t19 46.5t-19 46.5t-46 19.5h-331q-27 0 -48 -4.5t-37.5 -14t-30.5 -26t-27 -40.5l-150 -277.5l-138 -275.5q-7 -15 -7 -32q0 -29 21.5 -48t50.5 -19q18 0 34 9.5
t27 31.5l57 117h224v-84q0 -28 19 -47t47 -19h302q27 0 46 19t19 47zM425 273h-164l164 303v-303z" />
    <glyph glyph-name="Oslash" unicode="&#xd8;" horiz-adv-x="648" 
d="M585 261v207q0 60 -18 115t-61 93l15 35q7 14 1 29t-20 22q-15 6 -29.5 0t-21.5 -20l-11 -25q-24 10 -53 15.5t-63 5.5q-73 0 -123 -23t-80.5 -60.5t-43.5 -86.5t-13 -100v-207q0 -60 18 -115.5t60 -94.5l-15 -34q-7 -15 -1 -29.5t21 -21.5q14 -7 29 -1t22 21l11 24
q49 -20 115 -20q73 0 122.5 23t80.5 61t44.5 87t13.5 100zM388 600l-180 -402q-7 27 -7 63v207q0 32 5.5 58.5t20 46t38 30t59.5 10.5q20 0 35.5 -3.5t28.5 -9.5zM447 261q0 -32 -5.5 -58.5t-20 -46t-38 -30.5t-59.5 -11q-38 0 -63 12l180 403q6 -29 6 -62v-207z" />
    <glyph glyph-name="infinity" unicode="&#x221e;" 
 />
    <glyph glyph-name="plusminus" unicode="&#xb1;" 
 />
    <glyph glyph-name="lessequal" unicode="&#x2264;" 
 />
    <glyph glyph-name="greaterequal" unicode="&#x2265;" 
 />
    <glyph glyph-name="yen" unicode="&#xa5;" horiz-adv-x="525" 
d="M525 673q0 28 -22 46.5t-48 18.5q-17 0 -32.5 -9.5t-24.5 -30.5l-61.5 -132l-72.5 -144l-72 143.5l-62 131.5q-9 21 -25 31t-34 10q-13 0 -26 -5t-23 -14t-16 -21t-6 -26q0 -16 7 -30l42.5 -93.5l47.5 -97.5h-28q-23 0 -39 -16t-16 -39t16 -38.5t39 -15.5h84l40 -75v-13
h-124q-23 0 -39 -16t-16 -39t16 -38.5t39 -15.5h124v-85q0 -29 20 -49t49 -20t49 20t20 49v85h124q23 0 38.5 15.5t15.5 38.5t-15.5 39t-38.5 16h-124v14l39 74h85q23 0 38.5 15.5t15.5 38.5t-15.5 39t-38.5 16h-29q51 101 92 193q7 15 7 29z" />
    <glyph glyph-name="uni00B5" unicode="&#xb5;" horiz-adv-x="571" 
d="M540 49q0 14 -5.5 24t-13.5 16q-12 10 -21 20t-9 36v313q0 28 -19.5 48t-47.5 20t-48 -20t-20 -48v-296q-13 -19 -34 -30t-49 -11q-22 0 -35.5 5.5t-21 15.5t-10.5 24.5t-3 31.5v260q0 28 -20 48t-48 20t-47.5 -20t-19.5 -48v-574q0 -29 19.5 -48.5t47.5 -19.5t48 19.5
t20 48.5v112q8 -1 16 -1.5t17 -0.5q48 0 84.5 13.5t62.5 37.5q11 -18 26 -29q14 -11 30.5 -16.5t32.5 -5.5q29 0 48.5 13t19.5 42z" />
    <glyph glyph-name="partialdiff" unicode="&#x2202;" 
 />
    <glyph glyph-name="summation" unicode="&#x2211;" 
 />
    <glyph glyph-name="product" unicode="&#x220f;" 
 />
    <glyph glyph-name="pi" unicode="&#x3c0;" 
 />
    <glyph glyph-name="integral" unicode="&#x222b;" 
 />
    <glyph glyph-name="ordfeminine" unicode="&#xaa;" horiz-adv-x="451" 
d="M419 328q0 11 -4.5 19.5t-11.5 13.5q-9 8 -15 16.5t-6 29.5v136q0 93 -37.5 134.5t-126.5 41.5q-33 0 -69 -6.5t-62 -23.5q-20 -13 -22 -31.5t8 -32.5q9 -13 25.5 -18t36.5 6q14 7 31 12.5t43 5.5q37 0 49.5 -20t12.5 -55v-15h-73q-80 0 -121.5 -33t-41.5 -91v-6
q0 -59 37 -94t111 -35q27 0 58 7t55 27q7 -11 16 -17q8 -6 21 -11.5t30 -5.5q26 0 41 10.5t15 35.5zM271 425q0 -32 -18 -48t-46 -16q-32 0 -46.5 12.5t-14.5 35.5v5q0 21 14.5 34t50.5 13h60v-36z" />
    <glyph glyph-name="ordmasculine" unicode="&#xba;" horiz-adv-x="456" 
d="M405 457v87q0 36 -10.5 68t-32 55.5t-55 37.5t-79.5 14t-79.5 -14t-55 -37.5t-32 -55.5t-10.5 -68v-87q0 -36 10.5 -68t32 -55.5t55 -37.5t79.5 -14t79.5 14t55 37.5t32 55.5t10.5 68zM293 457q0 -36 -16 -55.5t-49 -19.5t-49 19.5t-16 55.5v86q0 36 16 55.5t49 19.5
t49 -19.5t16 -55.5v-86z" />
    <glyph glyph-name="uni2126" unicode="&#x2126;" 
 />
    <glyph glyph-name="ae" unicode="&#xe6;" horiz-adv-x="786" 
d="M743 264v45q0 43 -11.5 82.5t-36.5 69.5t-64.5 47.5t-96.5 17.5q-44 0 -77 -12t-56 -33q-23 23 -58 34t-86 11q-40 0 -83.5 -8t-75.5 -29q-23 -15 -26 -36t7.5 -37.5t31 -24t45.5 5.5q17 9 37.5 15.5t52.5 6.5q46 0 61 -23.5t15 -67.5v-18h-89q-97 0 -147.5 -40
t-50.5 -111v-9q0 -71 44.5 -113.5t135.5 -42.5q50 0 91.5 12.5t70.5 47.5q25 -28 63 -44t93 -16q35 0 74.5 6.5t81.5 25.5q19 8 27 25.5t2 40.5q-6 22 -25.5 32t-40.5 2q-26 -11 -50 -16.5t-62 -5.5q-42 0 -62.5 25t-20.5 70v17h239q20 0 33.5 14t13.5 34zM613 310h-156v22
q0 43 20 66t59 23q41 0 59 -23t18 -66v-22zM322 168q0 -40 -21.5 -59t-56.5 -19q-39 0 -57 15t-18 43v10q0 26 17.5 42t62.5 16h73v-48z" />
    <glyph glyph-name="oslash" unicode="&#xf8;" horiz-adv-x="533" 
d="M481 207v106q0 54 -19 100t-61 75l17 39q5 11 0.5 22t-15.5 16t-22.5 0.5t-16.5 -15.5l-16 -36q-36 12 -82 12q-56 0 -96.5 -17t-67 -46t-39 -68t-12.5 -82v-106q0 -55 19.5 -101t61.5 -75l-17 -38q-5 -11 -0.5 -22.5t15.5 -16.5t22.5 -0.5t16.5 15.5l16 36
q38 -11 81 -11q56 0 96.5 17t67 46t39 67.5t12.5 82.5zM297 400l-105 -235q-6 18 -6 42v105q0 45 19.5 68.5t60.5 23.5q9 0 16.5 -1t14.5 -3zM346 207q0 -45 -19 -68.5t-61 -23.5q-19 0 -30 4l104 235q6 -18 6 -42v-105z" />
    <glyph glyph-name="questiondown" unicode="&#xbf;" horiz-adv-x="462" 
d="M365 446q0 33 -23.5 56.5t-56.5 23.5t-56.5 -23.5t-23.5 -56.5t23.5 -56.5t56.5 -23.5t56.5 23.5t23.5 56.5zM454 -119q0 21 -15.5 39.5t-46.5 18.5q-19 0 -32 -9q-17 -11 -35.5 -21t-48.5 -10q-17 0 -32.5 4t-27.5 14t-19 26t-7 39q0 18 6 32t17.5 26.5t26.5 24.5l33 26
q24 19 39 35.5t23 33t11 35.5t3 42q0 29 -17 46.5t-46 17.5q-28 0 -45 -17t-17 -41q0 -13 -2 -24t-9 -22.5t-21.5 -25.5t-38.5 -33q-20 -15 -38 -32t-32 -37.5t-22.5 -45.5t-8.5 -57q0 -50 19 -85.5t49 -58t67.5 -33t73.5 -10.5q51 0 85 10t64 28q17 11 30.5 27t13.5 37z
" />
    <glyph glyph-name="exclamdown" unicode="&#xa1;" horiz-adv-x="304" 
d="M232 446q0 33 -23.5 56.5t-56.5 23.5t-56.5 -23.5t-23.5 -56.5t23.5 -56.5t56.5 -23.5t56.5 23.5t23.5 56.5zM221 -146l-16 366q-2 32 -13 49t-40 17t-40.5 -17t-13.5 -49l-15 -366q-2 -31 16 -53t53 -22t53 22t16 53z" />
    <glyph glyph-name="logicalnot" unicode="&#xac;" 
 />
    <glyph glyph-name="radical" unicode="&#x221a;" 
 />
    <glyph glyph-name="florin" unicode="&#x192;" horiz-adv-x="424" 
d="M437 668q0 27 -17 43t-42 16h-17q-40 0 -71 -13.5t-53.5 -35t-36 -48.5t-18.5 -55l-10 -60h-35q-23 0 -39 -15.5t-16 -38.5t16 -38.5t39 -15.5h16l-73 -419q-5 -30 -19.5 -42.5t-40.5 -12.5h-6q-24 0 -41 -17.5t-17 -41.5t17 -41t41 -17h16q41 0 72.5 12t54 33.5t36.5 51
t20 63.5l75 431h56q23 0 38.5 15.5t15.5 38.5t-15.5 38.5t-38.5 15.5h-37l8 46q8 49 54 49h9q25 0 42 16t17 42z" />
    <glyph glyph-name="approxequal" unicode="&#x2248;" 
 />
    <glyph glyph-name="uni2206" unicode="&#x2206;" 
 />
    <glyph glyph-name="guillemotleft" unicode="&#xab;" horiz-adv-x="688" 
d="M625 137l-136 141l136 140q17 19 17 44q0 26 -19 43q-18 18 -43.5 17.5t-43.5 -18.5l-176 -183q-19 -19 -19 -43t19 -43l176 -183q18 -18 43.5 -18.5t43.5 17.5q19 17 19 42q0 26 -17 44zM314 137l-135 141l135 140q18 19 17.5 44.5t-18.5 42.5q-18 18 -43.5 17.5
t-43.5 -18.5l-177 -183q-18 -20 -18 -43t18 -43l177 -183q18 -18 43.5 -18.5t43.5 17.5q18 17 18.5 42.5t-17.5 43.5z" />
    <glyph glyph-name="guillemotright" unicode="&#xbb;" horiz-adv-x="688" 
d="M657 278q0 23 -18 43l-177 183q-18 18 -43.5 18.5t-43.5 -17.5q-18 -17 -18.5 -42.5t16.5 -44.5l136 -140l-136 -141q-17 -18 -16.5 -43.5t18.5 -42.5q18 -18 43.5 -17.5t43.5 18.5l177 183q18 20 18 43zM347 278q0 24 -19 43l-176 183q-18 18 -43.5 18.5t-43.5 -17.5
q-19 -17 -19 -43q0 -25 17 -44l136 -140l-136 -141q-17 -18 -17 -44q0 -25 19 -42q18 -18 43.5 -17.5t43.5 18.5l176 183q19 19 19 43z" />
    <glyph glyph-name="uni00A0" unicode="&#xa0;" horiz-adv-x="308" 
 />
    <glyph glyph-name="Agrave" unicode="&#xc0;" horiz-adv-x="579" 
d="M566 75q-36 158 -82.5 303.5t-104.5 288.5q-18 45 -42.5 58.5t-47.5 13.5t-46.5 -13.5t-42.5 -58.5q-57 -143 -104 -288.5t-83 -303.5q-5 -20 -0.5 -35.5t14.5 -26t24 -16.5t29 -6q21 0 39 13t25 41l12.5 54t13.5 53h235q7 -26 13.5 -53l12.5 -54q7 -29 25.5 -41.5
t40.5 -12.5q15 0 29 6t24.5 16.5t15 26t0.5 35.5zM372 274h-169l40.5 125.5t43.5 123.5q46 -122 85 -249zM375 863l-56 113q-8 18 -29 27.5t-45 -3.5q-23 -12 -28 -33t6 -38l66 -107q12 -20 29 -25.5t34 2.5q18 9 26 26.5t-3 37.5z" />
    <glyph glyph-name="Atilde" unicode="&#xc3;" horiz-adv-x="579" 
d="M566 75q-36 158 -82.5 303.5t-104.5 288.5q-18 45 -42.5 58.5t-47.5 13.5t-46.5 -13.5t-42.5 -58.5q-57 -143 -104 -288.5t-83 -303.5q-5 -20 -0.5 -35.5t14.5 -26t24 -16.5t29 -6q21 0 39 13t25 41l12.5 54t13.5 53h235q7 -26 13.5 -53l12.5 -54q7 -29 25.5 -41.5
t40.5 -12.5q15 0 29 6t24.5 16.5t15 26t0.5 35.5zM372 274h-169l40.5 125.5t43.5 123.5q46 -122 85 -249zM465 912q0 23 -14 40t-33 16q-14 0 -21.5 -5t-14 -11t-14 -11t-20.5 -5q-17 0 -31 6.5t-28.5 14.5t-31 14.5t-38.5 6.5q-19 0 -38.5 -6t-35 -18t-25 -29.5t-9.5 -40.5
t14 -40t33 -16q13 0 20.5 5t14 11t14 11t21.5 5q16 0 30 -6t28.5 -14t31.5 -14t39 -6q19 0 38.5 6t35 17t25 28.5t9.5 40.5z" />
    <glyph glyph-name="Otilde" unicode="&#xd5;" horiz-adv-x="648" 
d="M585 261v207q0 51 -13.5 100t-44.5 86.5t-80.5 60.5t-122.5 23t-123 -23t-80.5 -60.5t-43.5 -86.5t-13 -100v-207q0 -51 13 -100t43.5 -87t80.5 -61t123 -23t122.5 23t80.5 61t44.5 87t13.5 100zM447 261q0 -32 -5.5 -58.5t-20 -46t-38 -30.5t-59.5 -11t-59.5 10.5
t-38 30t-20 46.5t-5.5 59v207q0 32 5.5 58.5t20 46t38 30t59.5 10.5t59.5 -11t38 -30t20 -46t5.5 -58v-207zM496 912q0 23 -14 40t-33 16q-14 0 -21.5 -5t-14 -11t-14 -11t-20.5 -5q-17 0 -31 6.5t-28.5 14.5t-31 14.5t-38.5 6.5q-19 0 -38.5 -6t-35 -18t-25 -29.5
t-9.5 -40.5t14 -40t33 -16q13 0 20.5 5t14 11t14 11t21.5 5q16 0 30 -6t28.5 -14t31.5 -14t39 -6q19 0 38.5 6t35 17t25 28.5t9.5 40.5z" />
    <glyph glyph-name="OE" unicode="&#x152;" horiz-adv-x="937" 
d="M903 66q0 27 -19.5 46t-46.5 19h-252v170h216q27 0 45.5 18.5t18.5 44.5t-18.5 45t-45.5 19h-216v169h239q27 0 46.5 19.5t19.5 46.5t-19.5 46.5t-46.5 19.5h-311q-15 0 -27.5 -6t-21.5 -16q-28 14 -62.5 22.5t-77.5 8.5q-73 0 -123 -23t-80.5 -60.5t-43.5 -86.5
t-13 -100v-207q0 -51 13 -100t43.5 -87t80.5 -61t123 -23q43 0 77.5 8.5t62.5 23.5q19 -22 49 -22h324q27 0 46.5 19t19.5 47zM447 261q0 -32 -5.5 -58.5t-20 -46t-38 -30.5t-59.5 -11t-59.5 11t-38 30.5t-20 46t-5.5 58.5v207q0 32 5.5 58.5t20 46t38 30t59.5 10.5
t59.5 -11t38 -30t20 -46t5.5 -58v-207z" />
    <glyph glyph-name="oe" unicode="&#x153;" horiz-adv-x="810" 
d="M766 266v43q0 43 -11.5 82.5t-36 69.5t-64.5 47.5t-97 17.5q-48 0 -83 -14.5t-59 -38.5q-26 24 -62 38.5t-87 14.5q-56 0 -96.5 -17t-67 -46t-39 -68t-12.5 -82v-106q0 -44 12.5 -82.5t39 -67.5t67 -46t96.5 -17q49 0 85 13.5t61 37.5q24 -24 59.5 -37.5t84.5 -13.5
q35 0 75 6.5t81 25.5q20 8 27.5 25.5t1.5 40.5q-6 22 -25.5 32t-39.5 2q-26 -11 -50.5 -16.5t-62.5 -5.5q-42 0 -62.5 25t-20.5 70v19h239q20 0 33.5 14t13.5 34zM636 319h-156v13q0 43 20 66t60 23t58 -23t18 -66v-13zM346 207q0 -45 -19 -68.5t-61 -23.5q-41 0 -60.5 23.5
t-19.5 68.5v105q0 45 19.5 68.5t60.5 23.5q42 0 61 -23.5t19 -68.5v-105z" />
    <glyph glyph-name="endash" unicode="&#x2013;" horiz-adv-x="425" 
d="M429 289q0 26 -18 44t-44 18h-309q-26 0 -44 -18t-18 -44t18 -44t44 -18h309q26 0 44 18t18 44z" />
    <glyph glyph-name="emdash" unicode="&#x2014;" horiz-adv-x="817" 
d="M821 289q0 26 -18 44t-44 18h-701q-26 0 -44 -18t-18 -44t18 -44t44 -18h701q26 0 44 18t18 44z" />
    <glyph glyph-name="quotedblleft" unicode="&#x201c;" horiz-adv-x="477" 
d="M429 548q0 28 -17 48.5t-43 27.5q4 21 13.5 32.5t19.5 20t17 15.5t7 18q0 12 -9 20t-20 8q-10 0 -31.5 -12t-43 -34.5t-37.5 -55t-16 -73.5q0 -42 22.5 -67.5t58.5 -25.5q32 0 55.5 22.5t23.5 55.5zM209 548q0 28 -17.5 48.5t-43.5 27.5q5 21 14.5 32.5t19 20t16.5 15.5
t7 18q0 12 -8.5 20t-19.5 8q-10 0 -31.5 -12t-43 -34.5t-38 -55t-16.5 -73.5q0 -42 23 -67.5t58 -25.5q33 0 56.5 22.5t23.5 55.5z" />
    <glyph glyph-name="quotedblright" unicode="&#x201d;" horiz-adv-x="477" 
d="M429 646q0 42 -22.5 67t-58.5 25q-32 0 -56 -22t-23 -56q0 -28 17 -48.5t43 -26.5q-5 -21 -14 -32.5t-19 -20t-17 -15.5t-7 -18q0 -13 8.5 -21t19.5 -8q10 0 31.5 12t43.5 34.5t38 55t16 74.5zM209 646q0 42 -23 67t-59 25q-32 0 -55.5 -22t-23.5 -56q0 -28 17 -48.5
t43 -26.5q-5 -21 -14 -32.5t-19 -20t-17 -15.5t-7 -18q0 -13 9 -21t20 -8q10 0 31.5 12t43 34.5t38 55t16.5 74.5z" />
    <glyph glyph-name="quoteleft" unicode="&#x2018;" horiz-adv-x="257" 
d="M209 548q0 28 -17.5 48.5t-43.5 27.5q5 21 14.5 32.5t19 20t16.5 15.5t7 18q0 12 -8.5 20t-19.5 8q-10 0 -31.5 -12t-43 -34.5t-38 -55t-16.5 -73.5q0 -42 23 -67.5t58 -25.5q33 0 56.5 22.5t23.5 55.5z" />
    <glyph glyph-name="quoteright" unicode="&#x2019;" horiz-adv-x="257" 
d="M209 646q0 42 -23 67t-59 25q-32 0 -55.5 -22t-23.5 -56q0 -28 17 -48.5t43 -26.5q-5 -21 -14 -32.5t-19 -20t-17 -15.5t-7 -18q0 -13 9 -21t20 -8q10 0 31.5 12t43 34.5t38 55t16.5 74.5z" />
    <glyph glyph-name="divide" unicode="&#xf7;" horiz-adv-x="625" 
d="M392 492q0 33 -23 56.5t-57 23.5q-33 0 -56 -23.5t-23 -56.5t23 -56.5t56 -23.5q34 0 57 23.5t23 56.5zM543 289q0 26 -18 44t-44 18h-337q-26 0 -44 -18t-18 -44t18 -44t44 -18h337q26 0 44 18t18 44zM392 86q0 33 -23 56.5t-57 23.5q-33 0 -56 -23.5t-23 -56.5
t23 -56.5t56 -23.5q34 0 57 23.5t23 56.5z" />
    <glyph glyph-name="lozenge" unicode="&#x25ca;" 
 />
    <glyph glyph-name="ydieresis" unicode="&#xff;" horiz-adv-x="473" 
d="M452 435q7 20 4 37t-12.5 29t-23.5 18.5t-30 6.5q-19 0 -36.5 -11t-25.5 -35l-92 -292l-55 160.5l-42 131.5q-7 23 -22.5 34.5t-34.5 11.5q-15 0 -29 -6t-23.5 -16.5t-13.5 -25.5t2 -34l29 -88.5t38 -106.5l43.5 -115l44.5 -113q-28 -45 -57.5 -58.5t-60.5 -15.5
t-45.5 -22t-14.5 -43q0 -26 19.5 -47t55.5 -18q48 4 85.5 21.5t68 49.5t55 78t46.5 108zM452 696q0 35 -25 60t-60 25t-60 -25t-25 -60t25 -60t60 -25t60 25t25 60zM190 696q0 35 -25 60t-60 25t-60 -25t-25 -60t25 -60t60 -25t60 25t25 60z" />
    <glyph glyph-name="Ydieresis" unicode="&#x178;" horiz-adv-x="525" 
d="M523 673q0 29 -21.5 47t-47.5 18q-17 0 -32.5 -9.5t-24.5 -30.5l-62 -132t-73 -144l-71.5 143.5t-61.5 131.5q-10 21 -26 31t-33 10q-27 0 -49 -18.5t-22 -47.5q0 -15 6 -30q38 -86 84.5 -179l102.5 -196v-207q0 -29 19.5 -49t48.5 -20t49 20t20 49v208
q57 103 103.5 196.5t84.5 179.5q6 16 6 29zM476 897q0 35 -25 60t-60 25t-60 -25t-25 -60t25 -60t60 -25t60 25t25 60zM214 897q0 18 -6.5 33.5t-18 27t-27 18t-32.5 6.5q-35 0 -60 -25t-25 -60t25 -60t60 -25q17 0 32.5 6.5t27 18t18 27t6.5 33.5z" />
    <glyph glyph-name="fraction" unicode="&#x2044;" horiz-adv-x="421" 
d="M397 656q10 23 1 45.5t-32 32.5t-45.5 0.5t-32.5 -32.5l-264 -628q-9 -23 0 -45.5t32 -32.5q23 -9 45.5 0t31.5 32z" />
    <glyph glyph-name="currency" unicode="&#xa4;" horiz-adv-x="597" 
d="M557 640q0 28 -29 51q-27 23 -70 35t-85 12q-64 0 -110.5 -18.5t-78.5 -51.5t-50.5 -79t-24.5 -101h-19q-20 0 -33.5 -13.5t-13.5 -32.5q0 -20 13.5 -33.5t33.5 -13.5h14v-63h-14q-20 0 -33.5 -13.5t-13.5 -33.5t13.5 -33.5t33.5 -13.5h19q6 -56 24.5 -101.5t50 -78
t77.5 -50t108 -17.5q17 0 38.5 3t43 9.5t42 16t35.5 22.5q14 12 20.5 25.5t6.5 27.5q0 26 -17 42t-40 16q-11 0 -20.5 -3.5t-22.5 -11.5q-39 -22 -86 -22q-51 0 -81.5 27.5t-39.5 94.5h119q20 0 33.5 13.5t13.5 33.5t-13.5 33.5t-33.5 13.5h-125v63h125q20 0 33.5 13.5
t13.5 33.5q0 19 -13.5 32.5t-33.5 13.5h-119q10 66 40.5 96t84.5 30q26 0 44.5 -5.5t32.5 -14.5q14 -8 23.5 -12t20.5 -3q32 0 47.5 19t15.5 42z" />
    <glyph glyph-name="guilsinglleft" unicode="&#x2039;" horiz-adv-x="378" 
d="M314 137l-135 141l135 140q18 19 17.5 44.5t-18.5 42.5q-18 18 -43.5 17.5t-43.5 -18.5l-177 -183q-18 -20 -18 -43t18 -43l177 -183q18 -18 43.5 -18.5t43.5 17.5q18 17 18.5 42.5t-17.5 43.5z" />
    <glyph glyph-name="guilsinglright" unicode="&#x203a;" horiz-adv-x="378" 
d="M347 278q0 24 -19 43l-176 183q-18 18 -43.5 18.5t-43.5 -17.5q-19 -17 -19 -43q0 -25 17 -44l136 -140l-136 -141q-17 -18 -17 -44q0 -25 19 -42q18 -18 43.5 -17.5t43.5 18.5l176 183q19 19 19 43z" />
    <glyph glyph-name="daggerdbl" unicode="&#x2021;" horiz-adv-x="485" 
d="M485 65q0 25 -17.5 42t-42.5 17h-114v287h114q25 0 42.5 17t17.5 42q0 24 -17.5 41.5t-42.5 17.5h-114v140q0 29 -20 49t-49 20t-49 -20t-20 -49v-140h-114q-25 0 -42 -17.5t-17 -41.5q0 -25 17 -42t42 -17h114v-287h-114q-25 0 -42 -17t-17 -42q0 -24 17 -41.5t42 -17.5
h114v-140q0 -29 20 -49t49 -20t49 20t20 49v140h114q25 0 42.5 17.5t17.5 41.5z" />
    <glyph glyph-name="periodcentered" unicode="&#xb7;" horiz-adv-x="282" 
d="M220 295q0 33 -23.5 56.5t-56.5 23.5t-56.5 -23.5t-23.5 -56.5t23.5 -56.5t56.5 -23.5t56.5 23.5t23.5 56.5z" />
    <glyph glyph-name="quotesinglbase" unicode="&#x201a;" horiz-adv-x="257" 
d="M209 58q0 42 -23 67t-58 25q-33 0 -56.5 -22.5t-23.5 -55.5q0 -28 17 -48.5t43 -27.5q-5 -20 -14 -31.5t-19 -20t-17 -15.5t-7 -19t8.5 -20t19.5 -8q10 0 32 12t43.5 34.5t38 55t16.5 74.5z" />
    <glyph glyph-name="quotedblbase" unicode="&#x201e;" horiz-adv-x="475" 
d="M427 58q0 42 -22.5 67t-58.5 25q-32 0 -55.5 -22.5t-23.5 -55.5q0 -28 17 -48.5t43 -27.5q-5 -20 -14.5 -31.5t-19.5 -20t-17 -15.5t-7 -19t9 -20t20 -8q10 0 31.5 12t43 34.5t38 55t16.5 74.5zM209 58q0 42 -23 67t-58 25q-33 0 -56.5 -22.5t-23.5 -55.5q0 -28 17 -48.5
t43 -27.5q-5 -20 -14 -31.5t-19 -20t-17 -15.5t-7 -19t8.5 -20t19.5 -8q10 0 32 12t43.5 34.5t38 55t16.5 74.5z" />
    <glyph glyph-name="perthousand" unicode="&#x2030;" horiz-adv-x="869" 
d="M817 103v61q0 28 -9.5 49t-25.5 35.5t-37 21.5t-44 7q-24 0 -45 -7t-37 -21.5t-25.5 -35.5t-9.5 -49v-61q0 -28 9.5 -49t25.5 -35t37 -21t45 -7q23 0 44 7t37 21t25.5 35t9.5 49zM284 565v60q0 28 -9.5 49t-25.5 35.5t-37 21.5t-44 7t-44 -7t-37 -21.5t-25.5 -35.5
t-9.5 -49v-60q0 -29 9.5 -50t25.5 -35t37 -21t44 -7t44 7t37 21t25.5 35t9.5 50zM459 685q5 16 -1.5 30.5t-21.5 19.5q-15 6 -29.5 -0.5t-20.5 -21.5l-247 -670q-6 -15 0.5 -29.5t21.5 -20.5q15 -5 29.5 1t20.5 21zM547 103v61q0 28 -9.5 49t-25.5 35.5t-37 21.5t-45 7
q-23 0 -44 -7t-37 -21.5t-25.5 -35.5t-9.5 -49v-61q0 -28 9.5 -49t25.5 -35t37 -21t44 -7q24 0 45 7t37 21t25.5 35t9.5 49zM736 102q0 -21 -9.5 -30.5t-25.5 -9.5t-25.5 9.5t-9.5 30.5v64q0 20 9.5 29.5t25.5 9.5t25.5 -9.5t9.5 -29.5v-64zM203 563q0 -20 -9.5 -30
t-25.5 -10t-25.5 10t-9.5 30v63q0 21 9.5 30.5t25.5 9.5t25.5 -9.5t9.5 -30.5v-63zM466 102q0 -21 -10 -30.5t-26 -9.5q-15 0 -24.5 9.5t-9.5 30.5v64q0 20 9.5 29.5t24.5 9.5q17 0 26.5 -9.5t9.5 -29.5v-64z" />
    <glyph glyph-name="Acircumflex" unicode="&#xc2;" horiz-adv-x="579" 
d="M566 75q-36 158 -82.5 303.5t-104.5 288.5q-18 45 -42.5 58.5t-47.5 13.5t-46.5 -13.5t-42.5 -58.5q-57 -143 -104 -288.5t-83 -303.5q-5 -20 -0.5 -35.5t14.5 -26t24 -16.5t29 -6q21 0 39 13t25 41l12.5 54t13.5 53h235q7 -26 13.5 -53l12.5 -54q7 -29 25.5 -41.5
t40.5 -12.5q15 0 29 6t24.5 16.5t15 26t0.5 35.5zM372 274h-169l40.5 125.5t43.5 123.5q46 -122 85 -249zM444 819q13 16 11.5 35t-19.5 35l-107 94q-8 6 -17.5 10t-20.5 4q-21 1 -38 -14l-107 -91q-18 -16 -19.5 -35t11.5 -36t31.5 -19.5t37.5 11.5l84 63l84 -65
q19 -14 37.5 -11.5t31.5 19.5z" />
    <glyph glyph-name="Ecircumflex" unicode="&#xca;" horiz-adv-x="567" 
d="M533 66q0 27 -19 46t-46 19h-253v170h217q26 0 45 18.5t19 44.5t-19 45t-45 19h-217v169h240q27 0 46 19.5t19 46.5t-19 46.5t-46 19.5h-312q-27 0 -46 -19.5t-19 -46.5v-597q0 -28 19 -47t46 -19h325q27 0 46 19t19 47zM455 819q13 16 11.5 35t-19.5 35l-107 94
q-8 6 -17.5 10t-20.5 4q-21 1 -38 -14l-107 -91q-18 -16 -19.5 -35t11.5 -36t31.5 -19.5t37.5 11.5l84 63l84 -65q19 -14 37.5 -11.5t31.5 19.5z" />
    <glyph glyph-name="Aacute" unicode="&#xc1;" horiz-adv-x="579" 
d="M566 75q-36 158 -82.5 303.5t-104.5 288.5q-18 45 -42.5 58.5t-47.5 13.5t-46.5 -13.5t-42.5 -58.5q-57 -143 -104 -288.5t-83 -303.5q-5 -20 -0.5 -35.5t14.5 -26t24 -16.5t29 -6q21 0 39 13t25 41l12.5 54t13.5 53h235q7 -26 13.5 -53l12.5 -54q7 -29 25.5 -41.5
t40.5 -12.5q15 0 29 6t24.5 16.5t15 26t0.5 35.5zM372 274h-169l40.5 125.5t43.5 123.5q46 -122 85 -249zM357 929q11 17 6 38t-28 33q-24 13 -45 3.5t-29 -27.5l-56 -113q-11 -20 -3 -37.5t26 -26.5q17 -8 34 -2.5t29 25.5z" />
    <glyph glyph-name="Edieresis" unicode="&#xcb;" horiz-adv-x="579" 
d="M545 66q0 27 -19 46t-46 19h-253v170h217q26 0 45 18.5t19 44.5t-19 45t-45 19h-217v169h240q27 0 46 19.5t19 46.5t-19 46.5t-46 19.5h-312q-27 0 -46 -19.5t-19 -46.5v-597q0 -28 19 -47t46 -19h325q27 0 46 19t19 47zM523 897q0 35 -25 60t-60 25q-17 0 -32.5 -6.5
t-27 -18t-18 -27t-6.5 -33.5t6.5 -33.5t18 -27t27 -18t32.5 -6.5q35 0 60 25t25 60zM262 897q0 35 -25 60t-60 25t-60 -25t-25 -60t25 -60t60 -25t60 25t25 60z" />
    <glyph glyph-name="Egrave" unicode="&#xc8;" horiz-adv-x="567" 
d="M533 66q0 27 -19 46t-46 19h-253v170h217q26 0 45 18.5t19 44.5t-19 45t-45 19h-217v169h240q27 0 46 19.5t19 46.5t-19 46.5t-46 19.5h-312q-27 0 -46 -19.5t-19 -46.5v-597q0 -28 19 -47t46 -19h325q27 0 46 19t19 47zM381 863l-56 113q-8 18 -29 27.5t-45 -3.5
q-23 -12 -28 -33t6 -38l66 -107q12 -20 29 -25.5t34 2.5q18 9 26 26.5t-3 37.5z" />
    <glyph glyph-name="Iacute" unicode="&#xcd;" horiz-adv-x="293" 
d="M215 60v609q0 29 -20 49t-49 20t-48.5 -20t-19.5 -49v-609q0 -29 19.5 -49t48.5 -20t49 20t20 49zM215 929q11 17 6 38t-28 33q-24 13 -45 3.5t-29 -27.5l-56 -113q-11 -20 -3 -37.5t26 -26.5q17 -8 34 -2.5t29 25.5z" />
    <glyph glyph-name="Icircumflex" unicode="&#xce;" horiz-adv-x="293" 
d="M215 60v609q0 29 -20 49t-49 20t-48.5 -20t-19.5 -49v-609q0 -29 19.5 -49t48.5 -20t49 20t20 49zM300 819q13 16 11.5 35t-19.5 35l-107 94q-8 6 -17.5 10t-20.5 4q-21 1 -38 -14l-107 -91q-18 -16 -19.5 -35t11.5 -36t31.5 -19.5t37.5 11.5l84 63l84 -65
q19 -14 37.5 -11.5t31.5 19.5z" />
    <glyph glyph-name="Idieresis" unicode="&#xcf;" horiz-adv-x="293" 
d="M215 60v609q0 29 -20 49t-49 20t-48.5 -20t-19.5 -49v-609q0 -29 19.5 -49t48.5 -20t49 20t20 49zM364 897q0 35 -25 60t-60 25t-60 -25t-25 -60t25 -60t60 -25t60 25t25 60zM102 897q0 35 -25 60t-60 25t-60 -25t-25 -60t25 -60t60 -25t60 25t25 60z" />
    <glyph glyph-name="Igrave" unicode="&#xcc;" horiz-adv-x="293" 
d="M215 60v609q0 29 -20 49t-49 20t-48.5 -20t-19.5 -49v-609q0 -29 19.5 -49t48.5 -20t49 20t20 49zM226 863l-56 113q-8 18 -29 27.5t-45 -3.5q-23 -12 -28 -33t6 -38l66 -107q12 -20 29 -25.5t34 2.5q18 9 26 26.5t-3 37.5z" />
    <glyph glyph-name="Oacute" unicode="&#xd3;" horiz-adv-x="648" 
d="M585 261v207q0 51 -13.5 100t-44.5 86.5t-80.5 60.5t-122.5 23t-123 -23t-80.5 -60.5t-43.5 -86.5t-13 -100v-207q0 -51 13 -100t43.5 -87t80.5 -61t123 -23t122.5 23t80.5 61t44.5 87t13.5 100zM447 261q0 -32 -5.5 -58.5t-20 -46t-38 -30.5t-59.5 -11t-59.5 10.5
t-38 30t-20 46.5t-5.5 59v207q0 32 5.5 58.5t20 46t38 30t59.5 10.5t59.5 -11t38 -30t20 -46t5.5 -58v-207zM389 929q11 17 6 38t-28 33q-24 13 -45 3.5t-29 -27.5l-56 -113q-11 -20 -3 -37.5t26 -26.5q17 -8 34 -2.5t29 25.5z" />
    <glyph glyph-name="Ocircumflex" unicode="&#xd4;" horiz-adv-x="648" 
d="M585 261v207q0 51 -13.5 100t-44.5 86.5t-80.5 60.5t-122.5 23t-123 -23t-80.5 -60.5t-43.5 -86.5t-13 -100v-207q0 -51 13 -100t43.5 -87t80.5 -61t123 -23t122.5 23t80.5 61t44.5 87t13.5 100zM447 261q0 -32 -5.5 -58.5t-20 -46t-38 -30.5t-59.5 -11t-59.5 10.5
t-38 30t-20 46.5t-5.5 59v207q0 32 5.5 58.5t20 46t38 30t59.5 10.5t59.5 -11t38 -30t20 -46t5.5 -58v-207zM478 819q13 16 11.5 35t-19.5 35l-107 94q-8 6 -17.5 10t-20.5 4q-21 1 -38 -14l-107 -91q-18 -16 -19.5 -35t11.5 -36t31.5 -19.5t37.5 11.5l84 63l84 -65
q19 -14 37.5 -11.5t31.5 19.5z" />
    <glyph glyph-name="uniF8FF" unicode="&#xf8ff;" horiz-adv-x="542" 
d="M463 396v44l-43 5q-42 5 -64.5 -10.5t-24.5 -50.5q-35 15 -80 15q-74 0 -117.5 -43t-43.5 -117q0 -45 18.5 -84t61.5 -60q-10 -8 -16.5 -20t-6.5 -26q0 -24 18 -40t45 -27.5t58.5 -21.5t58.5 -20.5t45 -24t18 -33.5q0 -22 -12.5 -40t-35.5 -29q-34 -16 -77 -16
q-45 0 -77 16q-23 11 -35.5 29t-12.5 38q0 5 1 10l-45 -22q0 -17 4 -30.5t11 -24.5q12 -18 30 -30.5t39 -20t43 -10.5t42 -3q21 0 43 3.5t43.5 11.5t40 20t31.5 29q11 14 17 31t6 38q0 22 -8.5 39t-22 30t-32 22t-37.5 16q-43 17 -83 28t-60 25v42q11 -3 23.5 -4t24.5 -1
q72 0 117 42t45 118q0 33 -10.5 64.5t-34.5 55.5q1 12 6 19.5t11.5 11.5t13.5 5t13 1h51zM337 -148v4h-22v14h20v4h-20v12h22v4h-26v-38h26zM296 -122q0 12 -12 12h-15v-38h4v15h11q5 0 8 3q4 3 4 8zM256 -112l-3 2l-14 -18l-14 18l-3 -2l15 -19v-17h4v17zM213 -114v4h-30
v-4h13v-34h4v34h13zM357 239q0 -48 -27 -80t-79 -32q-54 0 -80 31t-26 81q0 49 27.5 80t78.5 31q53 0 79.5 -30t26.5 -81zM292 -122q0 -3 -2 -5t-6 -2h-11v15h11q8 0 8 -8z" />
    <glyph glyph-name="Ograve" unicode="&#xd2;" horiz-adv-x="648" 
d="M585 261v207q0 51 -13.5 100t-44.5 86.5t-80.5 60.5t-122.5 23t-123 -23t-80.5 -60.5t-43.5 -86.5t-13 -100v-207q0 -51 13 -100t43.5 -87t80.5 -61t123 -23t122.5 23t80.5 61t44.5 87t13.5 100zM447 261q0 -32 -5.5 -58.5t-20 -46t-38 -30.5t-59.5 -11t-59.5 10.5
t-38 30t-20 46.5t-5.5 59v207q0 32 5.5 58.5t20 46t38 30t59.5 10.5t59.5 -11t38 -30t20 -46t5.5 -58v-207zM411 863l-56 113q-8 18 -29 27.5t-45 -3.5q-23 -12 -28 -33t6 -38l66 -107q12 -20 29 -25.5t34 2.5q18 9 26 26.5t-3 37.5z" />
    <glyph glyph-name="Uacute" unicode="&#xda;" horiz-adv-x="649" 
d="M585 237v432q0 29 -20 49t-49 20t-49 -20t-20 -49v-426q0 -23 -5 -46.5t-19 -42.5t-38 -31t-61 -12q-38 0 -62 12t-37.5 31t-19 42.5t-5.5 46.5v426q0 29 -19.5 49t-48.5 20t-48.5 -20t-19.5 -49v-432q0 -51 15.5 -95.5t47.5 -78t81 -53t116 -19.5t116 19.5t81.5 53
t48 78t15.5 95.5zM411 929q11 17 6 38t-28 33q-24 13 -45 3.5t-29 -27.5l-56 -113q-11 -20 -3 -37.5t26 -26.5q17 -8 34 -2.5t29 25.5z" />
    <glyph glyph-name="Ucircumflex" unicode="&#xdb;" horiz-adv-x="649" 
d="M585 237v432q0 29 -20 49t-49 20t-49 -20t-20 -49v-426q0 -23 -5 -46.5t-19 -42.5t-38 -31t-61 -12q-38 0 -62 12t-37.5 31t-19 42.5t-5.5 46.5v426q0 29 -19.5 49t-48.5 20t-48.5 -20t-19.5 -49v-432q0 -51 15.5 -95.5t47.5 -78t81 -53t116 -19.5t116 19.5t81.5 53
t48 78t15.5 95.5zM476 819q13 16 11.5 35t-19.5 35l-107 94q-8 6 -17.5 10t-20.5 4q-21 1 -38 -14l-107 -91q-18 -16 -19.5 -35t11.5 -36t31.5 -19.5t37.5 11.5l84 63l84 -65q19 -14 37.5 -11.5t31.5 19.5z" />
    <glyph glyph-name="Ugrave" unicode="&#xd9;" horiz-adv-x="649" 
d="M585 237v432q0 29 -20 49t-49 20t-49 -20t-20 -49v-426q0 -23 -5 -46.5t-19 -42.5t-38 -31t-61 -12q-38 0 -62 12t-37.5 31t-19 42.5t-5.5 46.5v426q0 29 -19.5 49t-48.5 20t-48.5 -20t-19.5 -49v-432q0 -51 15.5 -95.5t47.5 -78t81 -53t116 -19.5t116 19.5t81.5 53
t48 78t15.5 95.5zM400 863l-56 113q-8 18 -29 27.5t-45 -3.5q-23 -12 -28 -33t6 -38l66 -107q12 -20 29 -25.5t34 2.5q18 9 26 26.5t-3 37.5z" />
    <glyph glyph-name="dotlessi" unicode="&#x131;" horiz-adv-x="268" 
d="M201 61v397q0 28 -19.5 48t-47.5 20q-29 0 -48.5 -20t-19.5 -48v-397q0 -28 19.5 -47.5t48.5 -19.5q28 0 47.5 19.5t19.5 47.5z" />
    <glyph glyph-name="circumflex" unicode="&#x2c6;" horiz-adv-x="530" 
d="M418 618q13 16 11.5 35t-19.5 35l-107 94q-8 6 -17.5 10t-20.5 4q-21 1 -38 -14l-107 -91q-18 -16 -19.5 -35t11.5 -36t31.5 -19.5t37.5 11.5l84 63l84 -65q19 -14 37.5 -11.5t31.5 19.5z" />
    <glyph glyph-name="tilde" unicode="&#x2dc;" horiz-adv-x="530" 
d="M442 711q0 23 -14 40t-33 16q-14 0 -21.5 -5t-14 -11t-14 -11t-20.5 -5q-17 0 -31 6.5t-28.5 14.5t-31 14.5t-38.5 6.5q-19 0 -38.5 -6t-35 -18t-25 -29.5t-9.5 -40.5t14 -40t33 -16q13 0 20.5 5t14 11t14 11t21.5 5q16 0 30 -6t28.5 -14t31.5 -14t39 -6q19 0 38.5 6
t35 17t25 28.5t9.5 40.5z" />
    <glyph glyph-name="macron" unicode="&#xaf;" horiz-adv-x="530" 
d="M411 675q0 23 -16.5 39.5t-40.5 16.5h-178q-24 0 -40.5 -16.5t-16.5 -39.5t16.5 -40t40.5 -17h178q24 0 40.5 17t16.5 40z" />
    <glyph glyph-name="breve" unicode="&#x2d8;" horiz-adv-x="530" 
d="M420 700q13 20 7 37.5t-21 28.5q-16 11 -35.5 8.5t-33.5 -23.5q-21 -35 -40 -43.5t-33 -8.5q-7 0 -15 1.5t-17 6.5t-19 15.5t-20 27.5q-14 23 -34.5 24t-36.5 -10q-14 -11 -19 -27.5t7 -36.5q32 -54 71.5 -77.5t82.5 -23.5q45 0 84.5 23.5t71.5 77.5z" />
    <glyph glyph-name="dotaccent" unicode="&#x2d9;" horiz-adv-x="530" 
d="M349 696q0 35 -24.5 60t-59.5 25t-59.5 -25t-24.5 -60t24.5 -59.5t59.5 -24.5t59.5 24.5t24.5 59.5z" />
    <glyph glyph-name="ring" unicode="&#x2da;" horiz-adv-x="530" 
d="M384 696q0 25 -9.5 46.5t-25.5 37.5t-37.5 25.5t-46.5 9.5t-46.5 -9.5t-37.5 -25.5t-25.5 -37.5t-9.5 -46.5t9.5 -46.5t25.5 -37.5t37.5 -25.5t46.5 -9.5t46.5 9.5t37.5 25.5t25.5 37.5t9.5 46.5zM323 696q0 -24 -17 -41.5t-41 -17.5t-41 17.5t-17 41.5t17 41t41 17
t41 -17t17 -41z" />
    <glyph glyph-name="cedilla" unicode="&#xb8;" horiz-adv-x="530" 
d="M362 -119q0 35 -24.5 57.5t-79.5 22.5v42h-61l-5 -56q-2 -18 7.5 -25t30.5 -9t31.5 -8t10.5 -19q0 -14 -13 -22.5t-45 -8.5q-46 0 -46 -25q0 -32 74 -32q57 0 88.5 22.5t31.5 60.5z" />
    <glyph glyph-name="hungarumlaut" unicode="&#x2dd;" horiz-adv-x="530" 
d="M445 700q10 17 5.5 38.5t-27.5 33.5q-25 12 -45.5 2.5t-29.5 -27.5l-56 -113q-10 -20 -2.5 -37.5t25.5 -25.5q18 -9 35 -3t29 25zM236 700q11 17 6 38.5t-28 33.5q-25 12 -45.5 2.5t-29.5 -27.5l-56 -113q-10 -20 -2.5 -37.5t25.5 -25.5q18 -9 35 -3t29 25z" />
    <glyph glyph-name="ogonek" unicode="&#x2db;" horiz-adv-x="530" 
d="M388 -155q0 20 -11.5 34t-34.5 14q-6 0 -12 -1t-17 -1q-45 0 -63.5 17t-17.5 52l2 44h-79l-10 -60q-14 -74 26.5 -113t120.5 -39q31 0 59 7q18 5 27.5 17.5t9.5 28.5z" />
    <glyph glyph-name="caron" unicode="&#x2c7;" horiz-adv-x="530" 
d="M418 775q-13 17 -31.5 20t-37.5 -11l-84 -64l-84 65q-19 14 -37.5 11.5t-31.5 -18.5q-13 -17 -11.5 -36t19.5 -35l107 -94q8 -6 17.5 -10t20.5 -4q22 0 38 14l107 92q18 15 19.5 34t-11.5 36z" />
    <glyph glyph-name="glyph257" 
 />
    <glyph glyph-name="Eth" unicode="&#xd0;" horiz-adv-x="676" 
d="M613 270v188q0 41 -9 88.5t-36.5 88t-78 67t-133.5 26.5h-190q-29 0 -49 -19.5t-20 -48.5v-239h-22q-26 0 -45 -18.5t-19 -44.5q0 -27 19 -45.5t45 -18.5h22v-225q0 -29 20 -49t49 -20h189q84 0 134.5 26.5t78 67t36.5 87.5t9 89zM475 270q0 -32 -5.5 -58t-20 -44.5
t-39.5 -28.5t-64 -10h-111v165h55q27 0 45.5 18.5t18.5 45.5q0 26 -18.5 44.5t-45.5 18.5h-55v176h111q39 0 64 -10t39.5 -28.5t20 -44.5t5.5 -58v-186z" />
  </font>
</defs>
</svg>
